<?xml version="1.0" encoding="utf-8"?>
<!-- Generator: Adobe Illustrator 15.0.0, SVG Export Plug-In . SVG Version: 6.00 Build 0)  -->
<!DOCTYPE svg PUBLIC "-//W3C//DTD SVG 1.1//EN" "http://www.w3.org/Graphics/SVG/1.1/DTD/svg11.dtd">
<svg version="1.1" id="Layer_1" xmlns="http://www.w3.org/2000/svg" xmlns:xlink="http://www.w3.org/1999/xlink" x="0px" y="0px"
	 width="41.438px" height="50px" viewBox="0 0 41.438 50" enable-background="new 0 0 41.438 50" xml:space="preserve">
<g>
	
		<radialGradient id="SVGID_1_" cx="23.8853" cy="32.1484" r="38.7214" gradientTransform="matrix(0.9899 0 0 1 -1.8389 0)" gradientUnits="userSpaceOnUse">
		<stop  offset="0" style="stop-color:#2CA5DF"/>
		<stop  offset="0.3418" style="stop-color:#2CA3DD"/>
		<stop  offset="0.5414" style="stop-color:#2C9AD7"/>
		<stop  offset="0.7043" style="stop-color:#2C8CCC"/>
		<stop  offset="0.8474" style="stop-color:#2C78BD"/>
		<stop  offset="0.9764" style="stop-color:#2C5FAA"/>
		<stop  offset="1" style="stop-color:#2C59A6"/>
	</radialGradient>
	<rect fill-rule="evenodd" clip-rule="evenodd" fill="url(#SVGID_1_)" width="41.438" height="29.215"/>
	<radialGradient id="SVGID_2_" cx="22.3804" cy="27.9521" r="36.2346" gradientUnits="userSpaceOnUse">
		<stop  offset="0" style="stop-color:#2CA5DF"/>
		<stop  offset="0.3418" style="stop-color:#2CA3DD"/>
		<stop  offset="0.5414" style="stop-color:#2C9AD7"/>
		<stop  offset="0.7043" style="stop-color:#2C8CCC"/>
		<stop  offset="0.8474" style="stop-color:#2C78BD"/>
		<stop  offset="0.9764" style="stop-color:#2C5FAA"/>
		<stop  offset="1" style="stop-color:#2C59A6"/>
	</radialGradient>
	<path fill-rule="evenodd" clip-rule="evenodd" fill="url(#SVGID_2_)" d="M41.438,29.277C41.438,40.722,32.161,50,20.719,50
		C9.277,50,0,40.722,0,29.277C0,17.836,9.277,8.561,20.719,8.561C32.161,8.561,41.438,17.836,41.438,29.277z"/>
	<g>
		<path fill-rule="evenodd" clip-rule="evenodd" fill="#0068B5" d="M29.817,26.307c-0.139-0.064-0.283-0.122-0.436-0.176
			c-0.459-0.162-0.936-0.273-1.457-0.34c-0.127-0.016-0.258-0.027-0.398-0.037c0.016-0.043,0.033-0.086,0.051-0.128
			c0.545-1.48,0.812-3.114,0.812-4.968c0-0.326-0.01-0.66-0.025-0.998l-0.062-1.081l-0.053-0.848l-0.32,0.086l-0.488,0.126
			l-1.096,0.293c-0.939,0.261-1.762,0.566-2.5,0.931c-0.096-0.171-0.184-0.325-0.271-0.47c-0.43-0.699-0.912-1.375-1.482-2.061
			c-0.285-0.34-0.58-0.678-0.869-1.002l-0.524-0.603l-0.205,0.232l-0.323,0.37c-0.251,0.287-0.517,0.586-0.769,0.885
			c-0.636,0.757-1.166,1.5-1.624,2.27c-0.075,0.129-0.152,0.266-0.229,0.406c-0.075-0.038-0.156-0.077-0.237-0.117
			c-0.563-0.264-1.157-0.492-1.817-0.69c-0.514-0.159-1.039-0.296-1.549-0.429l-0.839-0.219l-0.022,0.327l-0.034,0.561
			c-0.037,0.539-0.073,1.095-0.085,1.646c-0.002,0.135-0.005,0.271-0.005,0.403c0,1.851,0.271,3.476,0.818,4.956
			c0.017,0.051,0.034,0.1,0.054,0.147c-0.102,0.011-0.201,0.024-0.295,0.038c-0.418,0.063-0.803,0.158-1.181,0.284
			c-0.198,0.065-0.4,0.146-0.619,0.249l-0.155,0.075v2.529l0.406-0.235c0.219-0.127,0.477-0.238,0.789-0.344
			c1.068-0.361,2.143-0.424,3.193-0.186c0.373,0.086,0.717,0.238,1.077,0.396l0.384,0.167c1.229,0.511,2.39,0.751,3.543,0.731
			c1.438-0.026,2.678-0.496,3.704-0.951c0.311-0.14,0.604-0.24,0.895-0.314c1.146-0.287,2.324-0.211,3.498,0.225
			c0.176,0.064,0.342,0.146,0.518,0.231l0.389,0.188V26.38L29.817,26.307L29.817,26.307z M25.538,21.502
			c-0.025,0.506-0.074,0.964-0.15,1.392c-0.52,2.988-1.951,4.337-4.631,4.369c0.076-0.188,0.168-0.423,0.168-0.423
			c0.815-2.029,1.538-3.557,3.458-4.732C24.741,21.881,25.12,21.682,25.538,21.502L25.538,21.502z M20.59,27.264
			c-1.395-0.012-2.438-0.377-3.188-1.117c-0.663-0.652-1.119-1.623-1.387-2.965c-0.102-0.509-0.168-1.061-0.201-1.669
			c0.451,0.197,0.877,0.429,1.273,0.694c1.717,1.152,2.523,2.571,3.335,4.633C20.423,26.84,20.516,27.075,20.59,27.264L20.59,27.264
			z M21.102,20.088c0.143,0.229,0.273,0.463,0.395,0.697c-0.176,0.162-0.336,0.34-0.5,0.523c-0.118,0.133-0.233,0.27-0.342,0.404
			c-0.098-0.122-0.195-0.24-0.295-0.355c-0.146-0.165-0.304-0.333-0.492-0.518c0.111-0.215,0.348-0.617,0.449-0.781
			c0.121-0.191,0.25-0.387,0.384-0.58C20.847,19.688,20.98,19.889,21.102,20.088L21.102,20.088z"/>
		<path fill-rule="evenodd" clip-rule="evenodd" fill="#FFFFFF" d="M20.697,15.442c0.395,0.456,0.799,0.905,1.184,1.368
			c0.533,0.641,1.023,1.314,1.461,2.029c0.135,0.223,0.264,0.453,0.389,0.683v0.001l0.002-0.001
			c0.852-0.442,1.758-0.769,2.684-1.025c0.525-0.146,1.055-0.278,1.58-0.42c0.033,0.532,0.072,1.065,0.098,1.597
			c0.096,2-0.076,3.971-0.77,5.858c-0.061,0.159-0.125,0.315-0.193,0.471c0.254,0.008,0.508,0.024,0.76,0.058
			c0.479,0.061,0.945,0.166,1.402,0.326c0.139,0.049,0.275,0.104,0.412,0.166c0,0.627,0,1.254,0,1.879
			c-0.178-0.085-0.355-0.17-0.539-0.24c-1.186-0.438-2.432-0.539-3.662-0.232c-0.322,0.08-0.633,0.192-0.939,0.328
			c-1.162,0.518-2.295,0.904-3.596,0.928c-1.014,0.018-2.135-0.168-3.436-0.711c-0.515-0.214-0.973-0.453-1.506-0.576
			c-1.119-0.254-2.251-0.175-3.341,0.193c-0.288,0.096-0.573,0.215-0.837,0.366c0-0.63,0-1.261,0-1.89
			c0.193-0.09,0.389-0.171,0.59-0.24c0.371-0.123,0.749-0.213,1.137-0.271c0.213-0.033,0.43-0.055,0.646-0.07
			c-0.07-0.156-0.135-0.313-0.195-0.475c-0.627-1.695-0.829-3.465-0.791-5.262c0.014-0.732,0.07-1.465,0.117-2.193
			c0.686,0.182,1.381,0.351,2.062,0.559c0.608,0.188,1.203,0.406,1.782,0.68c0.155,0.074,0.309,0.153,0.459,0.234
			c0.115-0.212,0.232-0.424,0.355-0.631c0.467-0.789,1.005-1.529,1.6-2.234C19.966,16.271,20.333,15.861,20.697,15.442
			L20.697,15.442z M25.651,22.939c0.109-0.609,0.158-1.228,0.172-1.848c-0.553,0.213-1.082,0.465-1.58,0.784
			c-1.949,1.194-2.701,2.706-3.567,4.864c-0.778-1.973-1.582-3.514-3.438-4.759c-0.535-0.36-1.11-0.652-1.713-0.881
			c0.02,0.718,0.082,1.432,0.225,2.136c0.509,2.521,1.736,4.321,4.967,4.299C24.014,27.513,25.202,25.542,25.651,22.939
			L25.651,22.939z M21.198,21.486c0.197-0.219,0.41-0.451,0.637-0.641c-0.154-0.309-0.318-0.609-0.502-0.899
			c-0.197-0.32-0.412-0.631-0.635-0.935c-0.213,0.293-0.418,0.596-0.61,0.904c-0.081,0.131-0.574,0.957-0.541,0.99
			c0.212,0.203,0.418,0.41,0.61,0.629c0.176,0.199,0.342,0.408,0.498,0.624C20.824,21.927,21.004,21.701,21.198,21.486
			L21.198,21.486z"/>
		<rect x="30.687" y="34.123" fill-rule="evenodd" clip-rule="evenodd" fill="#231916" width="0.004" height="0.004"/>
		<path fill-rule="evenodd" clip-rule="evenodd" fill="#0068B5" d="M33.958,31.52c0,0,0,0.316,0,0.344
			c-0.055-0.056-0.113-0.109-0.18-0.152c-0.189-0.132-0.398-0.219-0.629-0.258c-0.215-0.035-0.455-0.053-0.719-0.053
			c-0.213,0-0.428,0.032-0.648,0.094c-0.223,0.066-0.408,0.143-0.564,0.232c-0.188,0.111-0.342,0.24-0.461,0.385
			c-0.141,0.174-0.211,0.358-0.211,0.555c0,0.185,0.055,0.354,0.158,0.501c0.086,0.122,0.254,0.267,0.557,0.267
			c0.236,0,0.434-0.064,0.58-0.191c0.199-0.174,0.238-0.355,0.238-0.48c0-0.123-0.018-0.247-0.053-0.381
			c-0.004-0.021-0.008-0.035-0.01-0.051c0.018-0.007,0.031-0.014,0.055-0.022c0.092-0.034,0.189-0.051,0.299-0.051
			c0.184,0,0.275,0.038,0.32,0.069c0.082,0.057,0.141,0.119,0.18,0.192c0.041,0.068,0.066,0.138,0.08,0.214
			c0.02,0.131,0.02,0.17,0.02,0.17s0,0.131,0,0.254c-0.129,0.051-0.334,0.125-0.664,0.229c-0.404,0.127-0.697,0.225-0.85,0.275
			c-0.123,0.047-0.258,0.107-0.393,0.18c-0.15,0.083-0.275,0.178-0.373,0.287c-0.121,0.125-0.211,0.273-0.273,0.434
			c-0.062,0.164-0.09,0.342-0.094,0.531c-0.008-0.041-0.016-0.092-0.016-0.16c0-1.346,0-2.69,0-4.036
			c0-0.103,0.02-0.188,0.049-0.253c0.018-0.035,0.037-0.047,0.061-0.055c0.055-0.016,0.113-0.027,0.176-0.039
			c0.072-0.011,0.164-0.021,0.252-0.027c0.082-0.006,0.164-0.012,0.248-0.019c0-0.315,0-0.627,0-0.94c-0.92,0-1.838,0-2.756,0
			c-0.006,0.086-0.014,0.17-0.02,0.252c0,0-0.002,0.064-0.061,0.281c0,0-0.111,0.412-0.117,0.426c-0.002,0.01-0.59,1.854-0.91,2.851
			c-0.014-0.058-1.139-3.81-1.139-3.81c-0.064,0-0.133,0-0.199,0c-0.83,0-1.656,0-2.484,0c0,0.312,0,0.621,0,0.932
			c0.08,0.009,0.16,0.02,0.242,0.027c0.064,0.006,0.141,0.018,0.225,0.031c0.057,0.014,0.127,0.039,0.199,0.078
			c0.051,0.025,0.082,0.06,0.109,0.111c0.029,0.063,0.045,0.16,0.045,0.278c0,1.261,0,2.521,0,3.784
			c0,0.216-0.016,0.355-0.035,0.452c-0.008,0.067-0.086,0.104-0.148,0.116c-0.072,0.015-0.131-0.006-0.143-0.027
			c-0.02-0.025-0.025-0.07-0.025-0.127c0-0.369,0.006-0.719,0.014-1.039c0.012-0.312,0.014-0.676,0.014-1.104
			c0-0.325-0.049-0.599-0.145-0.815c-0.104-0.231-0.254-0.414-0.453-0.549c-0.189-0.132-0.4-0.219-0.629-0.258
			c-0.215-0.035-0.455-0.053-0.721-0.053c-0.211,0-0.426,0.032-0.648,0.094c-0.223,0.066-0.409,0.143-0.563,0.232
			c-0.188,0.111-0.34,0.238-0.461,0.385c-0.025,0.033-0.047,0.064-0.07,0.101c-0.012-0.028-0.023-0.054-0.041-0.077
			c-0.119-0.17-0.284-0.305-0.49-0.398c-0.173-0.08-0.376-0.139-0.605-0.176c-0.225-0.031-0.455-0.049-0.693-0.049
			c-0.423,0.002-0.844,0.004-1.266,0.004l-1.282,0.006c0,0,0,0.039,0,0.058c-0.144-0.073-0.321-0.108-0.542-0.108
			c-0.189,0-0.369,0.033-0.533,0.098c-0.166,0.07-0.326,0.186-0.468,0.347c-0.081,0.096-0.157,0.222-0.231,0.388
			c-0.067,0.146-0.126,0.285-0.175,0.42c-0.048,0.124-0.104,0.245-0.163,0.376c-0.055,0.11-0.111,0.2-0.18,0.269
			c-0.037,0.037-0.088,0.066-0.152,0.092c-0.072,0.026-0.144,0.038-0.211,0.038h-0.02c0-0.33,0-0.979,0-0.979
			c0-0.05,0.01-0.089,0.024-0.114c0.001-0.002,0.004-0.008,0.022-0.011c0.013-0.004,0.152-0.026,0.152-0.026l0.461-0.041
			c0.004-0.082,0.006-0.166,0.006-0.249c0-0.185,0-0.37,0-0.558c-0.918,0-1.834,0-2.752,0c0,0.266,0,0.531,0,0.799
			c0.145,0.018,0.289,0.034,0.438,0.051c0.053,0.008,0.107,0.025,0.17,0.053c0.036,0.016,0.062,0.031,0.074,0.051
			c0.01,0.018,0.02,0.048,0.02,0.09c0,0.545,0,1.092,0,1.639c-0.488-0.314-0.981-0.607-1.48-0.854
			c-0.064-0.141-1.704-3.785-1.704-3.785c-0.059,0-0.118,0-0.178,0c-0.189,0-0.38,0-0.573,0c-0.295,0.645-0.584,1.29-0.879,1.938
			c0,0-0.496,1.102-0.556,1.234c-0.728,0.174-1.444,0.531-2.134,1.068c-0.33,0.246-0.022,0.717,0.352,0.453
			c0,0.016-0.004,0.033-0.004,0.049c0,0.053,0.008,0.104,0.025,0.15c0.049,0.147,0.17,0.256,0.33,0.301
			c0.169,0.047,0.344,0.033,0.506-0.008c-0.015,0.036-0.061,0.131-0.061,0.131c-0.059,0.127-0.12,0.223-0.178,0.29
			c-0.053,0.062-0.133,0.124-0.238,0.186c-0.059,0.033-0.143,0.061-0.241,0.081c-0.118,0.024-0.216,0.039-0.294,0.045
			c-0.084,0.006-0.167,0.011-0.252,0.018c0,0.277,0,0.553,0,0.829c1.077,0,2.154,0,3.229,0c0-0.276,0-0.558,0-0.837
			c-0.085-0.002-0.171-0.005-0.257-0.011c-0.244-0.011-0.465-0.044-0.65-0.101c-0.064-0.02-0.1-0.037-0.119-0.049
			c0-0.022,0.006-0.053,0.014-0.094c0.014-0.064,0.042-0.157,0.08-0.27c0.003-0.007,0.156-0.406,0.156-0.406
			s0.092-0.227,0.154-0.373c0.523-0.148,1.09-0.196,1.68-0.13c0.009,0,0.062,0.008,0.062,0.008s0.035-0.13,0.068-0.26
			c0.061,0.023,0.121,0.051,0.184,0.077c0.26,0.576,0.473,1.061,0.668,1.512c-0.008,0-0.015,0.004-0.025,0.005
			c-0.154,0.04-0.352,0.065-0.603,0.081c-0.085,0.005-0.171,0.01-0.255,0.014c0,0.279,0,0.557,0,0.833c1.17,0,2.342,0,3.518,0
			v-0.274c0.097,0.077,0.192,0.153,0.291,0.23c1.054,0.832,2.047,1.618,3.074,2.134c3.469,1.747,6.133,1.655,7.87,1.185
			c0.051,0.09,0.176,0.161,0.404,0.154c0.656-0.016,2.578-0.265,3.557-1.221c0.258-0.251,0.432-0.535,0.516-0.84
			c0.062-0.208,0.027-0.406-0.09-0.549c-0.102-0.123-0.252-0.188-0.422-0.184c0.209-0.285,0.393-0.586,0.547-0.896
			c0.033-0.066,0.068-0.135,0.098-0.203c0,0.154,0,0.307,0,0.459c1.051,0,2.1,0,3.148,0c0-0.004,0-0.008,0-0.013
			c0.193,0.084,0.41,0.126,0.65,0.126c0.359,0,0.678-0.064,0.941-0.19c0.152-0.073,0.299-0.17,0.441-0.28
			c0.061,0.091,0.133,0.172,0.225,0.238c0.189,0.141,0.439,0.213,0.734,0.213c0.156,0,0.307-0.02,0.441-0.056
			c0,0,0.062-0.019,0.107-0.033c0.074,0,2.191,0,2.191,0c0-0.269,0-0.539,0-0.81c-0.088-0.004-0.17-0.01-0.254-0.016
			c-0.07-0.004-0.15-0.014-0.24-0.029c-0.072-0.01-0.131-0.026-0.172-0.045l-0.008-0.002H36.17c-0.035-0.014-0.059-0.031-0.07-0.047
			c-0.004-0.008-0.018-0.03-0.018-0.09c0,0,0-2.449,0-2.901c0.107,0,0.215,0,0.215,0c0.092,0,0.182,0.002,0.273,0.004
			c0.01,0,0.023,0,0.031,0c0.109,0.005,0.213,0.011,0.297,0.021c0.021,0.004,0.061,0.026,0.1,0.066
			c0.068,0.068,0.135,0.15,0.193,0.249l0.002,0.003v0.004c0.064,0.098,0.123,0.201,0.172,0.307c0.037,0.084,0.084,0.191,0.104,0.249
			c0.02,0.062,0.039,0.124,0.061,0.187c0.25,0,0.502,0,0.75,0c0-0.65,0-1.305,0-1.957C36.842,31.52,35.399,31.52,33.958,31.52
			L33.958,31.52z M27.965,35.679v-0.042c0-0.082,0-0.164,0.004-0.245l0.498-0.05c0.062-0.007,0.115-0.018,0.158-0.034l0.01-0.003
			c0.039-0.016,0.072-0.04,0.094-0.082c0.029-0.057,0.047-0.134,0.047-0.23c0,0,0-1.894,0-3.209
			c-0.34,1.036-0.932,2.822-1.248,3.783c0.055-0.073,0.211-0.109,0.326-0.037C27.909,35.56,27.94,35.615,27.965,35.679
			L27.965,35.679z M22.192,35.309c-0.125,0.074-0.268,0.111-0.438,0.111c-0.141,0-0.25-0.033-0.332-0.105
			c-0.07-0.058-0.104-0.165-0.104-0.322c0-0.129,0.025-0.236,0.086-0.326c0.068-0.105,0.164-0.194,0.283-0.271
			c0.146-0.091,0.312-0.169,0.492-0.233c0.096-0.033,0.203-0.068,0.32-0.104c-0.01,0.377-0.018,0.883-0.02,1.019
			C22.397,35.161,22.305,35.241,22.192,35.309L22.192,35.309z M18.738,35.426c-0.125,0.044-0.283,0.067-0.471,0.067
			c-0.206,0-0.292-0.033-0.324-0.054c-0.016-0.01-0.021-0.016-0.021-0.016s0-0.004,0-0.015c0,0,0-0.806,0-1.151
			c0.081-0.004,0.192-0.006,0.329-0.006c0.313,0,0.548,0.057,0.696,0.167c0.13,0.095,0.19,0.218,0.19,0.384
			c0,0.1-0.014,0.189-0.037,0.273c-0.02,0.071-0.057,0.135-0.116,0.199C18.933,35.336,18.849,35.388,18.738,35.426L18.738,35.426z
			 M18.861,33.059c-0.018,0.06-0.047,0.108-0.092,0.152c0,0-0.002,0.003-0.005,0.004l-0.003,0.004
			c-0.028,0.031-0.087,0.074-0.211,0.115c-0.119,0.037-0.271,0.057-0.452,0.057c0,0-0.095,0-0.176,0c0-0.295,0-0.742,0-1.027
			c0.021,0,0.249-0.008,0.249-0.008c0.114,0,0.218,0.01,0.324,0.025c0.088,0.014,0.163,0.039,0.231,0.075
			c0.053,0.03,0.097,0.069,0.128,0.122c0.027,0.046,0.044,0.115,0.044,0.209C18.899,32.889,18.887,32.98,18.861,33.059
			L18.861,33.059z M14.156,35.541c0.045,0.117,0.088,0.243,0.134,0.379c-0.345-0.229-0.69-0.472-1.046-0.721
			c-0.028-0.018-0.056-0.038-0.084-0.059c0-0.021,0-0.045,0-0.067c0,0,0-0.413,0-0.698c0.141,0.018,0.258,0.058,0.35,0.122
			c0.137,0.096,0.27,0.263,0.395,0.493C14.016,35.199,14.1,35.385,14.156,35.541L14.156,35.541z M23.094,38.216
			c-1.639,0.27-4.246,0.243-7.372-1.421c-0.27-0.143-0.537-0.299-0.805-0.468c1.207,0,2.414,0,3.617,0
			c0.252,0,0.496-0.023,0.722-0.071c0.245-0.054,0.45-0.131,0.634-0.23c0.076-0.043,0.144-0.092,0.209-0.143
			c0.051,0.068,0.105,0.133,0.172,0.191c0.268,0.24,0.613,0.361,1.02,0.361c0.363,0,0.678-0.064,0.941-0.19
			c0.152-0.073,0.299-0.17,0.441-0.28c0.061,0.091,0.135,0.172,0.227,0.238c0.191,0.141,0.434,0.213,0.732,0.213
			c0.152,0,0.268-0.018,0.41-0.057c0.162-0.047,0.385-0.045,0.623-0.043c0.465,0.003,0.93,0.006,1.393,0.01c0-0.314,0-0.627,0-0.938
			c-0.082-0.008-0.166-0.014-0.248-0.021c-0.074-0.007-0.152-0.02-0.23-0.039c-0.068-0.014-0.123-0.039-0.176-0.066
			c-0.004-0.002-0.008-0.002-0.008-0.002c-0.004-0.006-0.01-0.006-0.01-0.006c-0.016-0.008-0.055-0.027-0.094-0.113
			c-0.023-0.064-0.057-0.184-0.057-0.399c0,0,0-1.643,0-2.934c0.16,0.53,1.346,4.413,1.346,4.413c0.154,0,0.307,0,0.459,0
			C26.223,37.205,24.79,37.936,23.094,38.216L23.094,38.216z M20.215,34.129l0.004-0.006l-0.001,0.002l-0.003,0.002V34.129z
			 M7.567,32.521c0.104-0.229,0.214-0.461,0.318-0.695c0.183,0.4,0.374,0.826,0.382,0.842c-0.249-0.039-0.494-0.062-0.738-0.063
			C7.543,32.582,7.567,32.521,7.567,32.521L7.567,32.521z M32.665,35.309c-0.125,0.074-0.27,0.111-0.438,0.111
			c-0.141,0-0.252-0.035-0.334-0.105c-0.068-0.058-0.104-0.165-0.104-0.322c0-0.129,0.025-0.236,0.088-0.326
			c0.068-0.105,0.164-0.194,0.283-0.271c0.148-0.091,0.309-0.169,0.492-0.233c0.098-0.033,0.203-0.068,0.318-0.104
			c-0.006,0.377-0.016,0.883-0.02,1.019C32.87,35.161,32.776,35.241,32.665,35.309L32.665,35.309z M34.413,32.371
			c0.061,0.008,0.119,0.025,0.18,0.051c0.035,0.016,0.062,0.031,0.072,0.051c0.016,0.018,0.02,0.048,0.02,0.09
			c0,0.923,0,1.846,0,2.768c0,0.058-0.01,0.085-0.016,0.101c-0.055-0.001-0.111-0.003-0.111-0.003
			c-0.068-0.002-0.096-0.008-0.1-0.013c-0.057-0.03-0.08-0.056-0.088-0.07c-0.006-0.011-0.021-0.042-0.021-0.126
			c0-0.391,0.006-0.732,0.016-1.038c0.006-0.319,0.01-0.683,0.01-1.105c0-0.278-0.037-0.521-0.107-0.72
			C34.325,32.359,34.413,32.371,34.413,32.371L34.413,32.371z M20.268,33.214c0.097,0.109,0.255,0.22,0.52,0.22
			c0.241,0,0.434-0.064,0.584-0.191c0.195-0.172,0.236-0.355,0.236-0.48c0-0.123-0.018-0.247-0.053-0.381
			c-0.004-0.02-0.012-0.035-0.014-0.051c0.02-0.007,0.033-0.014,0.057-0.022c0.092-0.034,0.191-0.051,0.299-0.051
			c0.184,0,0.275,0.038,0.318,0.069c0.082,0.057,0.141,0.119,0.186,0.192c0.037,0.068,0.062,0.138,0.074,0.211
			c0.02,0.13,0.023,0.174,0.023,0.174s0,0.13,0,0.253c-0.131,0.051-0.336,0.125-0.666,0.229c-0.404,0.128-0.697,0.225-0.848,0.275
			c-0.127,0.047-0.258,0.107-0.393,0.18c-0.119,0.064-0.219,0.139-0.303,0.221c-0.062-0.064-0.134-0.125-0.213-0.178
			c-0.076-0.053-0.158-0.098-0.248-0.138c0.051-0.036,0.102-0.071,0.149-0.114C20.109,33.517,20.205,33.377,20.268,33.214
			L20.268,33.214z M16.234,32.367c0.012,0,0.039,0.002,0.039,0.002c0.049,0.008,0.107,0.025,0.17,0.053
			c0.036,0.016,0.062,0.031,0.072,0.051c0.014,0.018,0.018,0.048,0.018,0.09c0,0.923,0,1.846,0,2.768
			c0,0.068-0.014,0.098-0.018,0.109c-0.006,0.007-0.021,0.015-0.04,0.021l-0.009,0.001c-0.033,0.012-0.077,0.02-0.132,0.024
			c0,0-0.146,0.013-0.167,0.013c-0.029-0.004-0.086-0.01-0.086-0.01c-0.023-0.002-0.042-0.006-0.066-0.008l0,0l-0.193-0.034
			l-0.009-0.002c-0.028-0.005-0.078-0.019-0.147-0.057c-0.021-0.013-0.064-0.048-0.11-0.146l-0.138-0.29
			c-0.076-0.162-0.139-0.283-0.189-0.383c-0.135-0.24-0.297-0.443-0.484-0.6c-0.097-0.084-0.213-0.154-0.342-0.209
			c0.018-0.024,0.039-0.047,0.057-0.07c0.113-0.146,0.217-0.343,0.322-0.603c0.045-0.11,0.09-0.231,0.133-0.361
			c0.031,0.029,0.059,0.056,0.086,0.077c0.131,0.107,0.298,0.164,0.5,0.164c0.214,0,0.398-0.074,0.539-0.214
			C16.149,32.642,16.212,32.512,16.234,32.367L16.234,32.367z"/>
		<path fill-rule="evenodd" clip-rule="evenodd" fill="#FFFFFF" d="M30.823,35.771h0.002c-0.004-0.007-0.01-0.012-0.016-0.019
			c-0.145-0.179-0.213-0.394-0.213-0.651c0-0.166,0.021-0.312,0.072-0.441c0.049-0.129,0.121-0.246,0.221-0.352
			c0.076-0.084,0.176-0.162,0.303-0.23c0.125-0.068,0.246-0.121,0.354-0.162c0.141-0.048,0.42-0.141,0.84-0.273
			c0.424-0.133,0.705-0.236,0.855-0.311c0-0.143,0-0.285,0-0.429c0-0.036-0.01-0.11-0.025-0.216
			c-0.018-0.107-0.055-0.209-0.107-0.301c-0.062-0.11-0.148-0.203-0.26-0.281c-0.113-0.078-0.273-0.119-0.479-0.119
			c-0.141,0-0.271,0.021-0.395,0.067c-0.119,0.044-0.207,0.091-0.256,0.142c0,0.057,0.016,0.143,0.045,0.254
			c0.031,0.113,0.043,0.217,0.043,0.312c0,0.1-0.047,0.192-0.143,0.275c-0.096,0.086-0.23,0.126-0.404,0.126
			c-0.15,0-0.266-0.052-0.338-0.154s-0.107-0.217-0.107-0.343c0-0.132,0.051-0.26,0.148-0.381c0.102-0.121,0.232-0.229,0.391-0.324
			c0.139-0.081,0.305-0.149,0.502-0.207c0.195-0.057,0.387-0.084,0.574-0.084c0.258,0,0.48,0.019,0.674,0.051
			c0.191,0.031,0.365,0.105,0.521,0.213c0.156,0.108,0.275,0.252,0.355,0.436c0.084,0.183,0.125,0.418,0.125,0.706
			c0,0.414-0.004,0.78-0.016,1.099c-0.01,0.318-0.014,0.666-0.014,1.045c0,0.111,0.021,0.201,0.064,0.268
			c0.039,0.065,0.104,0.123,0.188,0.17c0.049,0.025,0.119,0.039,0.219,0.042c0.066,0.001,0.135,0.005,0.199,0.005
			c0.064-0.027,0.113-0.066,0.146-0.119c0.041-0.066,0.062-0.148,0.062-0.254c0-0.922,0-1.845,0-2.768
			c0-0.098-0.021-0.176-0.064-0.241c-0.041-0.064-0.107-0.114-0.193-0.149c-0.078-0.033-0.162-0.059-0.25-0.069
			c-0.082-0.011-0.158-0.019-0.219-0.025c0-0.095,0-0.19,0-0.287c1.262,0,2.52,0,3.781,0c0,0.472,0,0.944,0,1.416
			c-0.094,0-0.191,0-0.285,0c-0.021-0.063-0.061-0.155-0.117-0.276c-0.053-0.121-0.119-0.234-0.186-0.343
			c-0.07-0.114-0.148-0.216-0.234-0.298c-0.082-0.087-0.174-0.136-0.262-0.146c-0.088-0.008-0.193-0.016-0.316-0.021
			c-0.121-0.002-0.225-0.006-0.312-0.006c-0.16,0-0.322,0-0.484,0c0,1.059,0,2.117,0,3.174c0,0.098,0.02,0.178,0.062,0.242
			c0.043,0.063,0.107,0.111,0.193,0.145c0.068,0.031,0.15,0.051,0.242,0.066c0.094,0.015,0.182,0.025,0.268,0.031
			c0,0.094,0,0.188,0,0.283c-0.658,0-1.312,0-1.965,0c-0.049,0.016-0.098,0.029-0.139,0.042c-0.109,0.029-0.232,0.048-0.369,0.048
			c-0.24,0-0.432-0.055-0.572-0.159c-0.145-0.106-0.236-0.261-0.275-0.462c-0.008,0-0.018,0-0.018,0
			c-0.209,0.207-0.422,0.365-0.652,0.476c-0.229,0.109-0.502,0.163-0.824,0.163c-0.34,0-0.623-0.098-0.842-0.293
			c-0.02-0.02-0.041-0.037-0.061-0.059c-0.006-0.008-0.014-0.014-0.018-0.021v0.003C30.836,35.787,30.831,35.781,30.823,35.771
			L30.823,35.771z M33.25,33.694c-0.262,0.071-0.492,0.144-0.688,0.213c-0.197,0.071-0.377,0.153-0.547,0.261
			c-0.152,0.098-0.275,0.213-0.363,0.348c-0.09,0.133-0.133,0.293-0.133,0.477c0,0.239,0.068,0.417,0.199,0.528
			c0.135,0.113,0.305,0.169,0.508,0.169c0.219,0,0.408-0.049,0.576-0.15c0.164-0.097,0.305-0.215,0.418-0.351
			C33.231,34.689,33.241,34.193,33.25,33.694L33.25,33.694z M22.778,33.694c-0.26,0.071-0.49,0.144-0.688,0.213
			c-0.197,0.071-0.379,0.153-0.547,0.261c-0.154,0.098-0.273,0.213-0.363,0.348c-0.088,0.133-0.133,0.293-0.133,0.477
			c0,0.239,0.066,0.417,0.197,0.528c0.137,0.113,0.307,0.169,0.51,0.169c0.217,0,0.408-0.049,0.578-0.15
			c0.162-0.097,0.301-0.215,0.416-0.351C22.758,34.689,22.768,34.193,22.778,33.694L22.778,33.694z M24.461,35.303
			c0.02-0.13,0.039-0.282,0.039-0.498c0-1.264,0-2.523,0-3.784c0-0.164-0.027-0.297-0.076-0.403c-0.051-0.1-0.129-0.176-0.227-0.229
			c-0.092-0.049-0.186-0.083-0.271-0.099c-0.09-0.02-0.172-0.028-0.25-0.036c0-0.141,0-0.279,0-0.42c0.738,0,1.479,0,2.215,0
			c0.443,1.487,0.887,2.971,1.33,4.454c0.396-1.229,0.785-2.46,1.178-3.688c0.037-0.125,0.076-0.269,0.117-0.438
			c0.047-0.166,0.068-0.276,0.072-0.329c0.746,0,1.49,0,2.232,0c0,0.141,0,0.279,0,0.42c-0.104,0.008-0.193,0.016-0.271,0.029
			c-0.078,0.011-0.148,0.027-0.213,0.044c-0.1,0.032-0.176,0.099-0.225,0.2c-0.047,0.097-0.074,0.221-0.074,0.368
			c0,1.347,0,2.69,0,4.036c0,0.145,0.021,0.264,0.066,0.355c0.043,0.09,0.117,0.159,0.223,0.211
			c0.074,0.041,0.156,0.072,0.242,0.094c0.084,0.02,0.164,0.034,0.248,0.042c0.01,0.015,0.02,0.024,0.027,0.036
			c0,0.127,0,0.256,0,0.383c-0.869,0-1.736,0-2.607,0c0-0.138,0-0.277,0-0.416c0.084-0.008,0.168-0.016,0.258-0.025
			c0.088-0.009,0.162-0.025,0.23-0.053c0.102-0.037,0.184-0.104,0.238-0.204c0.055-0.098,0.082-0.218,0.082-0.362
			c0-1.498,0-3.001,0-4.502c-0.041,0-0.086,0-0.129,0c-0.6,1.82-1.203,3.641-1.799,5.461c-0.113,0-0.225,0-0.338,0
			c-0.564-1.855-1.129-3.711-1.691-5.567c-0.041,0-0.08,0-0.121,0c0,1.452,0,2.905,0,4.357c0,0.213,0.027,0.381,0.078,0.504
			c0.053,0.123,0.127,0.206,0.225,0.253c0.078,0.041,0.158,0.072,0.246,0.094c0.09,0.021,0.178,0.037,0.271,0.045
			c0,0.139,0,0.278,0,0.416c-0.359-0.002-0.721-0.004-1.082-0.007c-0.273-0.003-0.527-0.005-0.734,0.053
			c-0.111,0.031-0.201,0.048-0.338,0.048c-0.24,0-0.432-0.055-0.574-0.159c-0.143-0.106-0.232-0.261-0.271-0.462
			c-0.012,0-0.02,0-0.02,0c-0.209,0.207-0.422,0.365-0.652,0.476c-0.229,0.109-0.502,0.163-0.824,0.163
			c-0.341,0-0.622-0.098-0.84-0.293c-0.138-0.123-0.233-0.271-0.286-0.443c-0.1,0.146-0.235,0.266-0.407,0.36
			c-0.16,0.093-0.345,0.156-0.557,0.203c-0.209,0.045-0.43,0.065-0.666,0.065c-0.785,0-1.57,0-2.355,0c-0.014,0-0.027,0-0.041,0
			c-0.506,0-1.012,0-1.52,0c-0.075-0.236-0.145-0.438-0.206-0.608c-0.062-0.167-0.152-0.362-0.271-0.585
			c-0.146-0.271-0.304-0.468-0.477-0.589c-0.174-0.12-0.397-0.181-0.67-0.181c-0.035,0-0.072,0-0.105,0c0,0.326,0,0.652,0,0.979
			c-0.28-0.188-0.564-0.376-0.846-0.563c0-0.648,0-1.299,0-1.947c0-0.098-0.022-0.176-0.066-0.241
			c-0.042-0.064-0.107-0.114-0.191-0.149c-0.08-0.033-0.158-0.059-0.232-0.069c-0.076-0.011-0.146-0.019-0.211-0.025
			c0-0.095,0-0.19,0-0.287c0.736,0,1.477,0,2.211,0c0,0.097,0,0.192,0,0.287c-0.089,0.007-0.16,0.013-0.229,0.021
			c-0.066,0.01-0.128,0.02-0.182,0.031c-0.087,0.023-0.15,0.068-0.191,0.137c-0.042,0.066-0.062,0.151-0.062,0.253
			c0,0.417,0,0.833,0,1.25c0.096,0,0.192,0,0.289,0c0.103,0,0.203-0.019,0.305-0.057c0.102-0.036,0.184-0.087,0.255-0.154
			c0.083-0.087,0.161-0.2,0.226-0.344c0.068-0.142,0.127-0.273,0.172-0.396c0.05-0.131,0.105-0.267,0.168-0.402
			c0.062-0.141,0.127-0.247,0.189-0.322c0.115-0.129,0.238-0.221,0.365-0.273c0.134-0.054,0.276-0.08,0.434-0.08
			c0.234,0,0.408,0.045,0.521,0.142c0.108,0.095,0.163,0.216,0.163,0.36c0,0.125-0.042,0.23-0.129,0.32
			c-0.091,0.086-0.203,0.134-0.348,0.134c-0.139,0-0.246-0.034-0.324-0.101c-0.08-0.066-0.187-0.178-0.324-0.332
			c-0.059,0.049-0.115,0.152-0.171,0.309c-0.053,0.157-0.103,0.295-0.151,0.414c-0.094,0.232-0.188,0.412-0.285,0.539
			c-0.095,0.129-0.21,0.23-0.338,0.309c0,0.02,0,0.037,0,0.057c0.28,0.05,0.501,0.146,0.666,0.285
			c0.164,0.139,0.303,0.311,0.417,0.523c0.054,0.102,0.116,0.225,0.187,0.371c0.068,0.145,0.113,0.239,0.133,0.286
			c0.062,0.13,0.139,0.218,0.222,0.267c0.087,0.047,0.167,0.076,0.24,0.088c0.071,0.015,0.142,0.026,0.214,0.037
			c0.065,0.009,0.124,0.017,0.178,0.023c0.062-0.007,0.128-0.012,0.195-0.017c0.074-0.007,0.141-0.018,0.192-0.036
			c0.087-0.025,0.151-0.07,0.194-0.135c0.04-0.066,0.062-0.148,0.062-0.254c0-0.922,0-1.845,0-2.768
			c0-0.098-0.021-0.176-0.065-0.241c-0.04-0.064-0.107-0.114-0.191-0.149c-0.083-0.033-0.158-0.059-0.234-0.069
			c-0.074-0.011-0.145-0.019-0.211-0.025c0-0.095,0-0.19,0-0.287c0.275,0,0.613,0,1.019-0.005c0.399-0.002,0.821-0.004,1.261-0.004
			c0.232,0,0.449,0.018,0.65,0.047c0.203,0.031,0.38,0.08,0.537,0.153c0.161,0.075,0.289,0.177,0.377,0.308
			c0.088,0.127,0.135,0.283,0.135,0.464c0,0.284-0.096,0.511-0.285,0.675c-0.186,0.169-0.434,0.279-0.744,0.341
			c0,0.013,0,0.032,0,0.046c0.158,0.021,0.312,0.057,0.467,0.102c0.15,0.046,0.288,0.109,0.404,0.19
			c0.122,0.081,0.223,0.186,0.294,0.31c0.019,0.031,0.034,0.061,0.048,0.096c0.042-0.07,0.092-0.141,0.15-0.203
			c0.078-0.084,0.179-0.162,0.303-0.23c0.128-0.068,0.246-0.121,0.358-0.162c0.137-0.048,0.416-0.141,0.836-0.273
			c0.424-0.133,0.707-0.236,0.855-0.311c0-0.143,0-0.285,0-0.429c0-0.036-0.01-0.11-0.027-0.216
			c-0.016-0.107-0.051-0.209-0.107-0.301c-0.061-0.11-0.146-0.203-0.26-0.281c-0.111-0.078-0.271-0.119-0.477-0.119
			c-0.141,0-0.27,0.021-0.393,0.067c-0.119,0.044-0.207,0.091-0.256,0.142c0,0.057,0.014,0.143,0.043,0.254
			c0.029,0.113,0.045,0.217,0.045,0.312c0,0.1-0.049,0.192-0.146,0.275c-0.094,0.086-0.229,0.126-0.403,0.126
			c-0.15,0-0.265-0.052-0.336-0.154c-0.072-0.103-0.109-0.217-0.109-0.343c0-0.132,0.051-0.26,0.15-0.381s0.227-0.229,0.389-0.324
			c0.139-0.081,0.305-0.149,0.5-0.207c0.197-0.057,0.389-0.084,0.574-0.084c0.26,0,0.482,0.019,0.676,0.051
			c0.193,0.031,0.367,0.105,0.523,0.213c0.154,0.108,0.275,0.252,0.357,0.436c0.078,0.183,0.121,0.418,0.121,0.706
			c0,0.414-0.004,0.78-0.014,1.099s-0.016,0.666-0.016,1.045c0,0.111,0.023,0.201,0.062,0.268
			C23.836,35.768,24.399,35.668,24.461,35.303L24.461,35.303z M19.409,34.803c0-0.254-0.103-0.453-0.3-0.602
			c-0.199-0.146-0.484-0.219-0.857-0.219c-0.16,0-0.289,0.001-0.383,0.008c-0.093,0.006-0.165,0.008-0.217,0.008
			c0,0.472,0,0.941,0,1.411c0,0.111,0.049,0.2,0.151,0.261c0.104,0.062,0.255,0.093,0.464,0.093c0.22,0,0.41-0.027,0.561-0.081
			c0.154-0.056,0.275-0.13,0.359-0.225c0.084-0.094,0.142-0.194,0.174-0.305C19.395,35.043,19.409,34.927,19.409,34.803
			L19.409,34.803z M19.17,32.787c0-0.146-0.027-0.262-0.086-0.354c-0.055-0.09-0.131-0.16-0.229-0.215
			c-0.096-0.051-0.199-0.086-0.317-0.105c-0.118-0.017-0.241-0.028-0.366-0.028c-0.08,0-0.168,0.003-0.265,0.007
			c-0.097,0.006-0.181,0.009-0.255,0.011c0,0.519,0,1.04,0,1.558c0.149,0,0.299,0,0.446,0c0.212,0,0.389-0.022,0.534-0.069
			c0.141-0.046,0.254-0.106,0.326-0.185c0.077-0.076,0.13-0.166,0.164-0.27C19.154,33.033,19.17,32.915,19.17,32.787L19.17,32.787z
			 M27.313,37.232c0.205-0.013,0.326,0.152,0.262,0.389c-0.082,0.276-0.236,0.514-0.445,0.719c-0.869,0.848-2.625,1.127-3.375,1.146
			c-0.041-0.004-0.078-0.006-0.121-0.006c0.027-0.004,0.053-0.01,0.078-0.016c1.012-0.246,1.996-0.748,2.779-1.674
			C26.747,37.489,27.01,37.255,27.313,37.232L27.313,37.232z M11.848,36.057c-0.112,0-0.225,0-0.336,0h-0.003
			c-0.88,0-1.757,0-2.635,0c0-0.103,0-0.205,0-0.306c0.263-0.016,0.478-0.043,0.652-0.088c0.172-0.042,0.259-0.097,0.259-0.159
			c0-0.027-0.003-0.058-0.012-0.095c-0.003-0.038-0.017-0.07-0.028-0.101c-0.239-0.549-0.48-1.092-0.724-1.633
			c-0.673-0.303-1.357-0.484-2.057-0.488c-0.043,0.1-0.088,0.199-0.133,0.297c0.669,0.014,1.328,0.158,1.678,0.276
			c0.031,0.012,0.062,0.024,0.092,0.036c-0.021-0.002-0.042-0.004-0.066-0.01c-0.62-0.068-1.267-0.029-1.912,0.178
			c-0.069,0.164-0.139,0.332-0.203,0.496c-0.061,0.15-0.113,0.29-0.159,0.414C6.217,35,6.188,35.102,6.171,35.178
			c-0.017,0.079-0.024,0.143-0.024,0.192c0,0.115,0.103,0.204,0.313,0.267c0.212,0.063,0.45,0.101,0.715,0.114
			c0,0.101,0,0.203,0,0.306c-0.896,0-1.791,0-2.687,0c0-0.103,0-0.205,0-0.306c0.087-0.007,0.195-0.024,0.326-0.052
			c0.131-0.025,0.238-0.062,0.323-0.109c0.136-0.079,0.236-0.158,0.312-0.245c0.072-0.085,0.146-0.202,0.217-0.353
			c0.117-0.251,0.24-0.515,0.364-0.785c-0.058,0.028-0.114,0.059-0.17,0.09c-0.293,0.162-0.567,0.264-0.815,0.197
			c-0.164-0.045-0.208-0.206-0.086-0.369c0.143-0.193,0.338-0.33,0.562-0.431c0.25-0.108,0.537-0.169,0.835-0.196
			c0.042-0.092,0.084-0.186,0.128-0.281c-0.666,0.082-1.35,0.343-2.046,0.838c0-0.012,0-0.025,0-0.039
			c0.736-0.572,1.456-0.904,2.159-1.049c0.084-0.186,0.17-0.376,0.255-0.57c0.435-0.959,0.819-1.815,1.159-2.564
			c0.137,0,0.269,0,0.401,0c0.56,1.239,1.116,2.476,1.671,3.714c1.895,0.909,3.703,2.526,5.512,3.487
			c5.567,2.962,10.549,1.271,11.991-1.107c0.012,0.006,0.027,0.014,0.039,0.022c-1.279,2.622-5.572,5.472-12.02,2.228
			c-1.656-0.836-3.333-2.471-5.074-3.643c0.088,0.197,0.176,0.396,0.266,0.594c0.051,0.112,0.105,0.203,0.172,0.272
			c0.063,0.07,0.151,0.137,0.268,0.203c0.076,0.042,0.176,0.075,0.301,0.103s0.227,0.043,0.311,0.046
			C11.848,35.852,11.848,35.954,11.848,36.057L11.848,36.057z M8.734,33.039c-0.281-0.619-0.567-1.242-0.849-1.871
			c-0.254,0.576-0.523,1.15-0.784,1.725C7.654,32.842,8.199,32.902,8.734,33.039L8.734,33.039z"/>
		
			<linearGradient id="SVGID_3_" gradientUnits="userSpaceOnUse" x1="3594.0562" y1="6743.9658" x2="3594.0562" y2="6749.6426" gradientTransform="matrix(1 0 0 1 -3573.2793 -6720.6699)">
			<stop  offset="0.1017" style="stop-color:#00B2EB"/>
			<stop  offset="0.8418" style="stop-color:#FFFFFF"/>
		</linearGradient>
		<path fill-rule="evenodd" clip-rule="evenodd" fill="url(#SVGID_3_)" d="M27.604,23.322c-0.096,0.477-0.191,0.947-0.332,1.414
			c-0.111,0.383-0.246,0.754-0.402,1.121c-0.061,0.143-0.123,0.285-0.184,0.429c0.152,0.005,0.307,0.009,0.459,0.017
			c0.252,0.008,0.5,0.025,0.75,0.059c0.258,0.035,0.514,0.082,0.762,0.146c0.254,0.062,0.508,0.141,0.75,0.242
			c0,0.405,0,0.811,0,1.217c-0.199-0.08-0.398-0.148-0.605-0.209c-0.348-0.104-0.705-0.18-1.066-0.225
			c-0.4-0.051-0.807-0.064-1.209-0.037c-0.467,0.032-0.932,0.114-1.379,0.252c-0.426,0.133-0.824,0.328-1.236,0.496
			c-0.383,0.154-0.773,0.293-1.17,0.404c-0.395,0.111-0.799,0.19-1.205,0.233c-0.439,0.046-0.881,0.046-1.323,0.008
			c-0.409-0.035-0.814-0.107-1.215-0.206c-0.42-0.107-0.83-0.244-1.23-0.406c-0.405-0.162-0.797-0.357-1.205-0.501
			c-0.297-0.104-0.6-0.174-0.91-0.222c-0.326-0.052-0.659-0.076-0.993-0.074c-0.369,0.004-0.737,0.039-1.098,0.105
			c-0.293,0.053-0.579,0.127-0.864,0.217c-0.182,0.061-0.371,0.124-0.549,0.2c0-0.405,0-0.811,0-1.218
			c0.175-0.079,0.368-0.143,0.551-0.197c0.268-0.08,0.543-0.145,0.816-0.191c0.234-0.037,0.471-0.064,0.707-0.082
			c0.148-0.009,0.294-0.021,0.439-0.031c-0.059-0.137-0.118-0.275-0.178-0.415c-0.064-0.142-0.123-0.284-0.177-0.431
			c-0.112-0.309-0.215-0.621-0.302-0.938c-0.105-0.387-0.193-0.781-0.262-1.178c0.574,0,1.146,0,1.719,0
			c0.13,0.609,0.293,1.207,0.55,1.775c0.308,0.673,0.739,1.287,1.321,1.746c0.568,0.449,1.246,0.727,1.953,0.865
			c0.471,0.094,0.953,0.127,1.432,0.124c0.579-0.004,1.161-0.064,1.719-0.221c0.627-0.173,1.213-0.464,1.705-0.889
			c0.52-0.448,0.914-1.021,1.197-1.645c0.254-0.561,0.42-1.153,0.545-1.757C26.458,23.322,27.03,23.322,27.604,23.322L27.604,23.322
			z M22.137,23.322c-0.316,0.383-0.586,0.828-0.818,1.266c-0.24,0.443-0.45,0.902-0.643,1.365c-0.203-0.479-0.424-0.951-0.683-1.403
			c-0.241-0.427-0.515-0.849-0.829-1.228C20.156,23.322,21.147,23.322,22.137,23.322L22.137,23.322z"/>
	</g>
	<g>
		
			<path fill="none" stroke="#FFFFFF" stroke-width="0.9163" stroke-linecap="round" stroke-linejoin="round" stroke-dasharray="0.0305,1.833" d="
			M40.002,29.277c0,10.652-8.635,19.285-19.284,19.285c-10.65,0-19.284-8.633-19.284-19.285c0-10.647,8.634-19.281,19.284-19.281
			C31.368,9.996,40.002,18.63,40.002,29.277z"/>
	</g>
</g>
</svg>
