<?xml version="1.0" encoding="utf-8"?>
<!-- Generator: Adobe Illustrator 15.0.0, SVG Export Plug-In . SVG Version: 6.00 Build 0)  -->
<!DOCTYPE svg PUBLIC "-//W3C//DTD SVG 1.1//EN" "http://www.w3.org/Graphics/SVG/1.1/DTD/svg11.dtd">
<svg version="1.1" id="Layer_1" xmlns="http://www.w3.org/2000/svg" xmlns:xlink="http://www.w3.org/1999/xlink" x="0px" y="0px"
	 width="69.3px" height="22.26px" viewBox="0 0 69.3 22.26" enable-background="new 0 0 69.3 22.26" xml:space="preserve">
<g>
	<linearGradient id="SVGID_1_" gradientUnits="userSpaceOnUse" x1="34.6499" y1="-0.583" x2="34.6499" y2="22.4028">
		<stop  offset="0" style="stop-color:#00596A"/>
		<stop  offset="1" style="stop-color:#174369"/>
	</linearGradient>
	<path fill="url(#SVGID_1_)" d="M6.209,10.436C6.08,10.202,5.936,10.023,5.77,9.897c-0.117-0.091-0.238-0.16-0.363-0.209
		C5.355,9.667,5.303,9.65,5.252,9.637C5.072,9.59,4.889,9.57,4.709,9.572c-0.162,0-0.277,0.021-0.354,0.067
		C4.281,9.684,4.234,9.754,4.213,9.848c-0.021,0.096-0.029,0.215-0.027,0.361v4.336c-0.002,0.197,0.014,0.356,0.047,0.48
		c0.035,0.123,0.104,0.213,0.209,0.271c0.102,0.058,0.258,0.085,0.465,0.085c0.186-0.001,0.35-0.022,0.5-0.067
		c0.086-0.025,0.168-0.059,0.242-0.096c0.201-0.109,0.367-0.255,0.496-0.439c0.129-0.184,0.229-0.389,0.297-0.619
		c0.072-0.231,0.121-0.469,0.146-0.717c0.027-0.246,0.041-0.488,0.039-0.724c-0.002-0.542-0.039-0.999-0.113-1.37
		C6.438,10.976,6.338,10.671,6.209,10.436z M6.236,13.665c-0.068,0.679-0.332,1.469-1.117,1.533c0-0.766,0-1.533,0-2.299
		c0-0.486,0-0.975,0-1.461c0-0.152-0.051-0.655,0.088-0.68c0.145,0,0.438,0.059,0.598,0.141c0.262,0.133,0.311,0.536,0.365,0.803
		C6.295,12.338,6.307,13.022,6.236,13.665z M23.521,6.247L23.521,6.247L23.521,6.247L23.521,6.247z M16.578,8.411
		c-0.004,0.012-0.006,0.024-0.01,0.035c0.004-0.01,0.006-0.021,0.008-0.029C16.576,8.415,16.578,8.412,16.578,8.411z M69.043,9.088
		C69.043,9.087,69.204,9.266,69.043,9.088L69.043,9.088z M23.982,6.595L23.982,6.595L23.982,6.595L23.982,6.595z M16.74,7.792
		L16.74,7.792L16.74,7.792C16.74,7.792,16.74,7.792,16.74,7.792z M28.102,3.661c-0.109-0.17-0.072-0.381,0.076-0.476
		c0.15-0.093,0.357-0.032,0.463,0.137c0.105,0.167,0.07,0.38-0.078,0.475C28.412,3.889,28.205,3.83,28.102,3.661z M16.654,8.106
		c0,0.001,0,0.003,0,0.004C16.654,8.109,16.654,8.107,16.654,8.106z M17.068,6.803c0,0.002,0,0.002,0,0.003l0,0
		C17.068,6.806,17.068,6.805,17.068,6.803z M23.539,7.612c0.014-0.029,0.029-0.06,0.045-0.088
		C23.568,7.552,23.553,7.583,23.539,7.612z M39.34,9.779c-0.086-0.062-0.184-0.108-0.295-0.139c-0.105-0.028-0.223-0.046-0.35-0.046
		c-0.15,0-0.256,0.016-0.316,0.045c-0.064,0.029-0.102,0.072-0.113,0.128c-0.012,0.054-0.018,0.122-0.014,0.2v1.742
		c-0.004,0.062-0.004,0.122-0.006,0.182c-0.002,0.061,0.008,0.117,0.033,0.165c0.023,0.052,0.074,0.089,0.148,0.118
		c0.078,0.031,0.191,0.047,0.35,0.047c0.096-0.001,0.186-0.01,0.268-0.026c0.135-0.03,0.252-0.079,0.35-0.15
		c0.156-0.116,0.271-0.271,0.342-0.464c0.074-0.195,0.109-0.412,0.107-0.648c0-0.248-0.039-0.471-0.123-0.674
		C39.635,10.057,39.51,9.897,39.34,9.779z M39.413,11.691c-0.018,0.048-0.01,0.028-0.002,0.003
		c-0.043,0.115-0.115,0.219-0.223,0.278c-0.002-0.39-0.002-0.777-0.002-1.166c0.197,0.001,0.264,0.009,0.293,0.209
		C39.51,11.239,39.491,11.477,39.413,11.691C39.426,11.655,39.444,11.612,39.413,11.691z M48.34,14.638c0-0.005,0-0.009,0-0.014
		c0,0.001,0,0.002,0,0.003C48.34,14.63,48.34,14.635,48.34,14.638z M69.043,9.088c-0.113-0.13-0.209-0.278-0.326-0.406
		c-0.539-0.604-1.307-0.594-2.064-0.602c-0.516-0.005-1.092-0.004-1.555,0.256C64.629,8.6,64.413,9.18,64.647,9.682
		c0.088,0.189,0.291,0.424,0.439,0.582c0.098,0.107,0.172,0.223,0.297,0.303c0.111,0.072,0.061,0.644,0.053,0.784
		c-0.377-0.274-0.717-0.61-1.066-0.918c-0.529-0.466-1.062-0.931-1.594-1.396c-0.494-0.434-0.957-0.908-1.654-0.947
		c-0.875-0.051-2.455-0.146-2.848,0.832c-0.574-0.812-1.6-0.844-2.514-0.842c-0.543,0-1.096,0.035-1.629,0.144
		c-0.48,0.096-1.07,0.265-1.314,0.736c-0.438-0.585-1.051-0.789-1.775-0.854c-0.578-0.05-1.176-0.042-1.754,0.027
		c-0.535,0.063-1.195,0.19-1.52,0.669c-0.129-0.135-0.207-0.26-0.381-0.367c-0.551-0.34-1.293-0.366-1.924-0.354
		c-0.869,0.02-2.973,0.14-2.879,1.447c-0.49-0.723-1.312-1.148-2.152-1.314c-0.807-0.158-1.598-0.021-2.404,0.029
		c-0.416,0.027-0.83,0.046-1.244,0.053c-0.482,0.009-0.969-0.041-1.452-0.015c-0.406,0.022-0.85,0.155-1.066,0.528
		c-0.188,0.324-0.152,0.748,0.074,1.043c0.08,0.099,0.158,0.199,0.238,0.299c0.037,0.047,0.076,0.096,0.115,0.143
		c0.07,0.089,0.145,0.169,0.24,0.232c0.031,0.021,0.293,0.122,0.293,0.144c0,0.755,0,1.51,0,2.265c0,0.594,0,1.187,0,1.781
		c-0.121-0.305-0.408-0.66-0.643-0.902c-0.244-0.273-0.621-0.425-0.986-0.344c-0.441,0.1-0.58,0.503-0.717,0.883
		c-0.119,0.338-0.287,0.578-0.648,0.664c-0.162,0.037-0.328,0.047-0.492,0.049c-0.176,0-0.119-0.154-0.119-0.305
		c0-0.269,0-0.537,0-0.807c0-0.899,0-1.797,0-2.695c0-0.061-0.004-0.121,0-0.183c0.002-0.377,0.188-0.346,0.486-0.509
		c0.348-0.188,0.471-0.557,0.418-0.934c-0.033-0.254-0.174-0.426-0.326-0.617c-0.328-0.451-0.701-0.695-1.264-0.8
		c-0.811-0.148-1.672-0.173-2.49-0.103c-0.721,0.064-1.85,0.251-2.012,1.121c-0.018,0.098-0.02,0.189-0.008,0.273
		c-0.271-0.485-0.59-0.942-0.949-1.363c-0.244-0.33-0.516-0.639-0.803-0.93c0.047-0.152,0.092-0.307,0.127-0.469
		c0.43,0.421,0.801,0.88,1.051,1.422c0.459,0.562,0.793,0.325,1.072-0.275c0.164-0.639,0.246-1.283,0.139-1.943
		c1.35-0.199,1.68-0.051,3.504,0.092c0.68,0.055,2.33-0.389,1.361-1.573c-0.852-1.04-0.398-1.162-0.73-1.925
		c-0.688-1.581-2.545-2.42-4.387-2.533c-1.75-0.105-3.639,0.471-5.596,1.408c-2.281-0.45-3.918-0.021-4.916,1.291
		c-0.26,0.393-0.176,0.577,0.242,0.551c0.305,0.02,0.588,0.059,0.852,0.111c0.533,0.15,0.475,0.817,0.211,1.367
		c-3.562,0.414-6.467,3.021-7.32,6.432c-0.08-0.197-0.174-0.391-0.283-0.575c0.039,0.065,0.174,0.294,0-0.001
		c-0.014-0.023-0.012-0.018-0.002-0.002c-0.361-0.609-0.889-1.246-1.469-1.65C7.838,8.46,6.998,8.228,6.162,8.156
		C5.35,8.087,4.52,8.128,3.703,8.128c-0.701,0-1.404-0.023-2.105,0.001C0.828,8.156-0.088,8.637,0.256,9.56
		C0.32,9.731,0.455,9.847,0.559,9.993c0.033,0.051,0.078,0.093,0.115,0.144c0.082,0.124,0.369,0.306,0.369,0.411
		c0.057,0.178-0.012,0.48-0.016,0.666c-0.021,0.945-0.045,1.891-0.064,2.838c-0.006,0.266-0.002,0.537-0.029,0.802
		C0.918,15,0.906,15.237,0.75,15.299c-0.369,0.148-0.678,0.262-0.738,0.707c-0.078,0.556,0.252,0.844,0.545,1.232
		c0.375,0.576,1.08,0.575,1.691,0.554c0.686-0.023,1.367-0.056,2.053-0.037c1.207,0.032,2.438,0.163,3.596-0.275
		c1.113-0.421,1.904-1.285,2.348-2.319c0.312,1.363,0.951,2.604,1.83,3.637c1.562,2.1,4.064,3.463,6.877,3.463
		c3.553,0,6.607-2.172,7.904-5.258c0.156,0.219,0.363,0.449,0.537,0.558c0.545,0.339,1.607,0.185,2.229,0.185
		c0.826,0,1.652,0,2.479-0.001c0.375,0,0.738,0.032,1.105,0.101c0.236,0.045,0.484,0.095,0.725,0.037
		c0.41-0.104,0.713-0.467,0.924-0.815c0.543,0.751,1.569,0.794,2.422,0.805c0.834,0.011,2.549,0.038,2.773-1.038
		c0.092-0.438-0.137-0.707-0.379-1.015c-0.066-0.089-0.139-0.183-0.213-0.263c-0.086-0.092-0.246-0.131-0.258-0.256
		c-0.01-0.074-0.012-0.15-0.012-0.225c0-0.122,0-0.244,0-0.365c0.926,0.062,1.818,0.045,2.664-0.398
		c0.879-0.463,1.48-1.299,1.588-2.291c0.006,0.608,0.01,1.219-0.004,1.825c-0.008,0.274-0.014,0.552-0.043,0.824
		c-0.016,0.138-0.025,0.296-0.084,0.423c-0.047,0.094-0.27,0.148-0.354,0.205c-0.5,0.33-0.596,0.984-0.205,1.441
		c0.064,0.068,0.117,0.148,0.18,0.22c0.057,0.072,0.109,0.147,0.172,0.217c0.348,0.429,0.924,0.573,1.449,0.64
		c0.602,0.08,1.221,0.073,1.824,0.012c0.586-0.061,1.338-0.205,1.674-0.746c0.117,0.115,0.195,0.254,0.334,0.359
		c0.488,0.373,1.193,0.42,1.785,0.429c0.822,0.013,2.74,0.107,2.967-1.003c0.08,0.092,0.148,0.193,0.227,0.285
		c0.35,0.451,0.865,0.611,1.42,0.678c0.707,0.084,1.455,0.064,2.162-0.018c0.668-0.076,1.609-0.235,1.768-1.022
		c0.104,0.156,0.238,0.302,0.357,0.448c0.375,0.451,0.984,0.586,1.549,0.621c0.672,0.042,1.48,0.039,2.068-0.341
		c0.451-0.292,0.746-0.997,0.365-1.467c-0.053-0.077-0.121-0.146-0.178-0.224c-0.059-0.079-0.127-0.152-0.186-0.23
		c-0.047-0.062-0.094-0.12-0.148-0.17c-0.15-0.133-0.162-0.165-0.178-0.372c-0.025-0.342-0.051-0.721,0.021-1.059
		c0.545,0.357,1.023,0.898,1.508,1.332c0.691,0.62,1.385,1.243,2.078,1.864c0.213,0.189,0.422,0.396,0.672,0.535
		c0.34,0.188,0.764,0.2,1.086-0.033c0.363-0.264,0.492-0.74,0.551-1.162c0.119-0.842,0.053-1.734,0.053-2.584
		c0-0.549,0-1.096,0-1.644c0-0.321,0-0.644,0.033-0.964c0.031-0.302,0.041-0.496,0.32-0.633
		C69.286,10.412,69.526,9.622,69.043,9.088z M9.551,13.663c-0.104,0.408-0.264,0.789-0.479,1.145
		c-0.215,0.354-0.49,0.662-0.822,0.93c-0.332,0.269-0.727,0.475-1.184,0.625s-0.98,0.228-1.566,0.23H5.406
		c-0.215-0.002-0.414-0.006-0.6-0.012c-0.211-0.005-0.406-0.013-0.586-0.025c-0.178-0.004-0.352-0.012-0.514-0.016
		s-0.324-0.006-0.484-0.006c-0.164,0-0.33,0.002-0.496,0.006s-0.33,0.012-0.492,0.016c-0.164,0.013-0.326,0.021-0.49,0.025
		c-0.164,0.006-0.33,0.012-0.5,0.012c-0.1,0-0.201-0.016-0.305-0.04s-0.203-0.063-0.287-0.118c-0.092-0.055-0.162-0.123-0.217-0.205
		c-0.055-0.086-0.084-0.184-0.084-0.3c0-0.118,0.016-0.206,0.049-0.265c0.033-0.058,0.078-0.098,0.131-0.123
		c0.057-0.023,0.117-0.045,0.184-0.061c0.066-0.018,0.131-0.043,0.199-0.075c0.066-0.034,0.127-0.091,0.186-0.167
		c0.057-0.076,0.104-0.189,0.139-0.334c0.037-0.146,0.059-0.34,0.064-0.58l0.094-4.033c0.002-0.197-0.016-0.352-0.053-0.465
		C1.303,9.714,1.25,9.629,1.186,9.572C1.123,9.515,1.055,9.471,0.982,9.44C0.908,9.411,0.838,9.377,0.773,9.344
		c-0.066-0.031-0.119-0.079-0.16-0.143C0.57,9.137,0.549,9.045,0.549,8.92c0-0.134,0.039-0.239,0.111-0.322
		c0.07-0.08,0.164-0.145,0.275-0.188s0.23-0.069,0.352-0.084C1.412,8.31,1.523,8.303,1.629,8.305h3.777h0.012
		c0.645,0.002,1.207,0.076,1.688,0.223C7.584,8.676,7.99,8.879,8.322,9.141c0.334,0.262,0.602,0.564,0.805,0.91
		s0.352,0.717,0.443,1.117c0.092,0.396,0.139,0.807,0.137,1.227C9.707,12.83,9.656,13.252,9.551,13.663z M17.852,4.715
		c0.006-0.012,0.008-0.023,0.014-0.035c0.023-0.055,0.047-0.109,0.068-0.164c0.008-0.022,0.018-0.044,0.025-0.066
		c0.016-0.045,0.033-0.091,0.047-0.136c0.008-0.021,0.016-0.042,0.021-0.062c0.02-0.063,0.037-0.126,0.051-0.185
		c0.002-0.006,0.002-0.011,0.004-0.016c0.012-0.056,0.021-0.109,0.031-0.164c0.002-0.018,0.002-0.035,0.006-0.053
		c0.004-0.043,0.008-0.083,0.008-0.123c0-0.018,0.002-0.033,0.002-0.05c-0.002-0.054-0.006-0.107-0.014-0.157
		C18,2.852,16.721,3.308,16.426,3.002c-0.318-0.331,0.996-1.262,1.562-1.293c0.561-0.031,1.164,1.018,1.193,1.562l1.064-0.934
		c0.297-0.249,0.631-0.486,0.996-0.702c1.717-1.034,4.279-1.851,6.488-1.315c2.053,0.496,3.006,1.582,3.143,2.93
		c0.057,0.594,1.352,1.43,1.053,1.867c-0.641,0.935-4.502-1.519-5.523-1.653c-0.996-0.132-1.41,0.158-1.807,0.801
		c-0.309,0.504-0.186,1.103-0.258,1.657c-0.008,0.055-0.016,0.113-0.027,0.175c0,0.007-0.004,0.016-0.004,0.023
		c-0.012,0.056-0.021,0.112-0.037,0.171c0,0.004-0.002,0.006-0.004,0.01c-0.211,0.861-0.83,2.1-1.668,2.731
		c-0.254,0.192-0.527,0.332-0.82,0.382c-0.141,0.025-0.41-0.092-0.371-0.268c0.041-0.197,0.096-0.489,0.158-0.828
		c0.139-0.77,0.289-1.645,0.354-2.375c0.047-0.535-0.193-1.264-0.588-0.992c-1.029,0.705-2.006,1.76-2.852,2.831
		c-0.072,0.091-0.143,0.184-0.211,0.276l0,0c-0.416,0.561-0.773,1.16-1.053,1.779c0,0,0.002,0,0.002-0.002
		c-0.029,0.064-0.057,0.128-0.084,0.191c-0.012,0.029-0.025,0.058-0.035,0.088c-0.029,0.069-0.057,0.139-0.082,0.209
		c-0.012,0.031-0.023,0.064-0.035,0.098c-0.045,0.121-0.086,0.242-0.121,0.365c-0.012,0.036-0.023,0.072-0.035,0.107
		c-0.018,0.063-0.033,0.129-0.049,0.193c-0.014,0.046-0.025,0.093-0.037,0.141c-0.014,0.065-0.029,0.131-0.043,0.197
		c-0.018,0.088-0.035,0.176-0.047,0.265c-0.01,0.053-0.018,0.103-0.023,0.155c-0.01,0.065-0.016,0.131-0.023,0.195
		c-0.004,0.047-0.01,0.093-0.014,0.14c-0.008,0.104-0.014,0.208-0.016,0.311c0,0.036,0,0.071,0,0.106c0,0.084,0,0.164,0.004,0.246
		c0.002,0.037,0.004,0.074,0.006,0.11c0.006,0.11,0.018,0.22,0.031,0.33c0.002,0.019,0.006,0.036,0.008,0.056
		c0.014,0.097,0.029,0.194,0.049,0.291c0.006,0.031,0.014,0.062,0.02,0.092c0.023,0.114,0.051,0.228,0.084,0.34
		c-0.018-0.055-0.033-0.111-0.047-0.168c0.09,0.474,0.652,1.368,0.467,1.838c-0.096,0.242-0.221,0.684-0.684,0.795
		c-0.029,0.008-0.057,0.01-0.086,0.011c-0.01,0-0.018-0.001-0.029-0.001c-0.021,0-0.041-0.003-0.066-0.006
		c-0.01-0.002-0.02-0.004-0.029-0.005c-0.025-0.006-0.053-0.013-0.082-0.021c-0.006-0.002-0.012-0.003-0.016-0.005
		c-0.035-0.011-0.07-0.024-0.105-0.039c-0.01-0.004-0.02-0.009-0.027-0.013c-0.029-0.012-0.057-0.025-0.086-0.04
		c-0.01-0.005-0.021-0.01-0.033-0.015c-0.031-0.018-0.061-0.033-0.094-0.051c-0.006-0.004-0.012-0.006-0.02-0.01
		c-0.264-0.146-0.555-0.342-0.834-0.483c-0.107-0.146-0.203-0.3-0.291-0.456c0.107-0.113,0.232-0.232,0.365-0.346
		c0.006-0.004,0.01-0.008,0.016-0.012c0.029-0.024,0.059-0.049,0.088-0.071c0.006-0.005,0.014-0.012,0.02-0.017
		c0.084-0.064,0.17-0.127,0.258-0.18c0.016-0.011,0.031-0.021,0.049-0.029c0.02-0.013,0.041-0.023,0.059-0.035
		c0.021-0.012,0.041-0.021,0.062-0.031c0.018-0.01,0.037-0.018,0.057-0.027c0.021-0.009,0.045-0.018,0.066-0.027
		c0.018-0.007,0.035-0.014,0.055-0.02c0.025-0.01,0.049-0.016,0.074-0.023c0.016-0.004,0.029-0.009,0.045-0.013
		c0.039-0.01,0.078-0.017,0.117-0.021c0.004,0,0.01,0,0.012,0c0.037-0.003,0.072-0.004,0.109-0.002c0.012,0,0.023,0.002,0.035,0.003
		c0.027,0.003,0.055,0.007,0.08,0.013c0.014,0.003,0.027,0.007,0.041,0.011c0.025,0.007,0.051,0.017,0.074,0.024
		c0.014,0.008,0.027,0.012,0.041,0.019c0.023,0.013,0.049,0.028,0.072,0.044c0.012,0.008,0.025,0.015,0.037,0.022
		c0.033,0.026,0.068,0.056,0.102,0.091c-0.061-0.139-0.115-0.279-0.166-0.422c-0.016-0.041-0.027-0.082-0.041-0.123
		c-0.041-0.111-0.074-0.225-0.107-0.338c-0.01-0.039-0.02-0.076-0.029-0.114c-0.039-0.151-0.076-0.304-0.107-0.458
		c-0.002-0.014-0.004-0.027-0.008-0.041c-0.027-0.143-0.051-0.288-0.072-0.435c-0.006-0.038-0.01-0.077-0.016-0.116
		c-0.016-0.137-0.031-0.275-0.043-0.414c-0.002-0.024-0.004-0.049-0.006-0.072c-0.012-0.17-0.02-0.339-0.025-0.51
		c0-0.012,0-0.023,0-0.037c-0.006-0.156-0.006-0.313-0.002-0.471c0-0.029,0.002-0.059,0.002-0.089
		c0.02-0.853,0.129-1.714,0.303-2.53c0.133-0.64,0.305-1.252,0.502-1.812C17.01,6.26,17.527,5.458,17.852,4.715z M16.941,14.344
		c0.457-1.892,1.211-3.57,2.514-4.849c1.033,0.126,1.949,0.63,2.615,1.365c0.473,0.683,0.752,1.509,0.752,2.399
		c0,2.326-1.891,4.216-4.215,4.216c-0.766,0-1.486-0.206-2.104-0.567c0.211-0.078,0.357-0.179,0.375-0.342
		c0.24,0.061,0.264,0.178,0.502,0.236c0.404,0.098,1.26-0.403,1.43,0.234C19.578,15.436,18.715,14.659,16.941,14.344z M20.676,8.526
		c0.008-0.005,0.018-0.011,0.025-0.017c0.07-0.043,0.143-0.085,0.213-0.128c0.018-0.01,0.033-0.021,0.051-0.031
		c0.002,0.002,0.002,0.002,0.002,0.002c0.102-0.061,0.203-0.122,0.311-0.178c0.078-0.039,0.15-0.082,0.229-0.119
		c-0.018,0.069-0.033,0.139-0.053,0.207c-0.082,0.322-0.164,0.645-0.248,0.967c-0.273-0.188-0.562-0.347-0.871-0.474
		c0.109-0.079,0.227-0.153,0.342-0.228C20.676,8.528,20.676,8.527,20.676,8.526z M15.713,14.233c-0.316,0.168-0.6,0.326-0.854,0.484
		c-0.086-0.331-0.131-0.68-0.131-1.037c0-1.03,0.369-1.974,0.986-2.707C15.639,12.043,15.658,13.116,15.713,14.233z M19.865,20.973
		c-4.316,0.748-8.42-2.145-9.168-6.459s2.145-8.418,6.459-9.166c0.043-0.007,0.086-0.012,0.127-0.019
		c-0.465,0.915-0.805,1.788-1.051,2.637c0.002,0,0.002-0.001,0.002-0.001c-0.064,0.229-0.123,0.455-0.176,0.68l0,0
		c-0.014,0.058-0.027,0.115-0.039,0.171c-0.023,0.106-0.041,0.211-0.061,0.315c-1.582,1.002-2.486,2.887-2.148,4.844
		c0.451,2.596,2.918,4.334,5.514,3.885c2.596-0.451,4.336-2.918,3.885-5.514c-0.158-0.911-0.566-1.716-1.139-2.357
		c0.043-0.018,0.088-0.034,0.135-0.055c0.301-0.133,0.572-0.291,0.826-0.466c0.596-0.417,1.055-0.951,1.377-1.604
		c0.965,1.072,1.648,2.418,1.914,3.944C27.07,16.122,24.18,20.225,19.865,20.973z M26.742,10.13c0.008,0.009,0.016,0.021,0.023,0.03
		c0.084,0.102,0.16,0.209,0.246,0.307c0.127,0.139,0.281,0.213,0.457,0.269c0.014,0.233,0.025,0.467,0.037,0.699
		c0.027,0.475,0.037,0.946,0.037,1.421c0,0.193-0.014,0.387-0.027,0.579C27.482,12.258,27.209,11.141,26.742,10.13z M34.344,15.192
		c-0.045,0.19-0.109,0.377-0.191,0.555c-0.08,0.179-0.172,0.338-0.273,0.482c-0.102,0.142-0.207,0.256-0.316,0.339
		c-0.113,0.083-0.223,0.126-0.33,0.128c-0.104-0.002-0.201-0.01-0.291-0.027s-0.188-0.036-0.293-0.055
		c-0.107-0.021-0.232-0.041-0.369-0.057c-0.139-0.018-0.305-0.023-0.502-0.023h-3.881c-0.096,0.001-0.197,0-0.307-0.005
		c-0.111-0.006-0.215-0.022-0.314-0.052s-0.18-0.078-0.244-0.149c-0.064-0.072-0.098-0.175-0.1-0.307
		c0.002-0.117,0.023-0.204,0.068-0.265c0.043-0.059,0.1-0.104,0.17-0.136c0.068-0.03,0.143-0.062,0.221-0.095
		c0.078-0.035,0.15-0.084,0.223-0.148c0.072-0.066,0.131-0.166,0.178-0.293c0.049-0.131,0.076-0.305,0.084-0.527
		c0.01-0.424,0.016-0.823,0.02-1.199c0.002-0.377,0.002-0.736,0.002-1.079c-0.002-0.347-0.012-0.688-0.029-1.017
		c-0.021-0.332-0.039-0.658-0.053-0.982c-0.004-0.161-0.031-0.286-0.084-0.375c-0.053-0.092-0.117-0.16-0.195-0.203
		c-0.078-0.045-0.164-0.08-0.25-0.103c-0.088-0.024-0.17-0.049-0.25-0.076c-0.078-0.027-0.139-0.069-0.191-0.124
		c-0.047-0.057-0.072-0.137-0.074-0.246c0.002-0.141,0.049-0.262,0.137-0.359c0.09-0.102,0.209-0.186,0.357-0.25
		c0.15-0.064,0.311-0.117,0.49-0.155c0.178-0.039,0.357-0.068,0.537-0.087s0.346-0.029,0.496-0.035
		c0.154-0.006,0.279-0.008,0.379-0.008c0.461,0.012,0.842,0.034,1.145,0.065c0.301,0.033,0.541,0.073,0.717,0.124
		c0.176,0.048,0.305,0.105,0.389,0.169c0.082,0.062,0.135,0.13,0.156,0.202c0.025,0.074,0.035,0.149,0.033,0.23
		c-0.004,0.11-0.023,0.193-0.068,0.251c-0.045,0.057-0.102,0.101-0.172,0.13c-0.068,0.031-0.141,0.059-0.221,0.09
		c-0.076,0.028-0.15,0.069-0.219,0.123c-0.07,0.053-0.127,0.131-0.172,0.235c-0.045,0.104-0.066,0.245-0.068,0.426v3.694
		c-0.002,0.21,0.01,0.391,0.035,0.549c0.025,0.154,0.07,0.284,0.137,0.387c0.07,0.104,0.168,0.182,0.293,0.23
		c0.129,0.055,0.295,0.077,0.502,0.077c0.324-0.001,0.588-0.041,0.785-0.119c0.197-0.077,0.35-0.177,0.457-0.298
		c0.107-0.123,0.189-0.252,0.244-0.39c0.051-0.138,0.096-0.268,0.135-0.39c0.039-0.121,0.09-0.22,0.15-0.298
		c0.062-0.077,0.152-0.118,0.273-0.12c0.129,0.002,0.24,0.033,0.332,0.094s0.166,0.142,0.223,0.239
		c0.059,0.102,0.1,0.207,0.125,0.323c0.025,0.117,0.041,0.23,0.041,0.343C34.414,14.811,34.391,14.997,34.344,15.192z
		 M42.366,11.826c-0.109,0.282-0.262,0.529-0.453,0.745c-0.195,0.213-0.42,0.392-0.682,0.538c-0.256,0.145-0.539,0.253-0.84,0.326
		c-0.301,0.074-0.615,0.11-0.941,0.11c-0.135-0.002-0.271-0.007-0.404-0.018c-0.037-0.004-0.076-0.008-0.115-0.012
		c-0.17-0.016-0.334-0.026-0.492-0.028c-0.066,0-0.115,0.016-0.145,0.044c-0.027,0.031-0.045,0.078-0.041,0.143v0.674
		c0.008,0.24,0.033,0.43,0.078,0.569c0.045,0.142,0.102,0.247,0.166,0.321c0.068,0.072,0.139,0.126,0.213,0.163
		c0.072,0.034,0.141,0.067,0.207,0.097c0.049,0.023,0.094,0.053,0.129,0.093c0.01,0.011,0.021,0.021,0.029,0.034
		c0.041,0.053,0.059,0.135,0.061,0.244c-0.002,0.107-0.029,0.199-0.09,0.279c-0.01,0.014-0.021,0.029-0.035,0.044
		c-0.082,0.087-0.191,0.16-0.326,0.218c-0.139,0.059-0.285,0.105-0.451,0.139c-0.162,0.034-0.326,0.06-0.49,0.074
		c-0.164,0.016-0.318,0.025-0.459,0.031c-0.141,0.004-0.254,0.006-0.346,0.006c-0.082,0-0.191-0.002-0.332-0.004
		c-0.137-0.004-0.289-0.014-0.455-0.026c-0.168-0.014-0.334-0.037-0.498-0.071c-0.166-0.03-0.319-0.074-0.458-0.13
		c-0.141-0.057-0.252-0.128-0.334-0.216c-0.084-0.088-0.127-0.194-0.129-0.32c0.002-0.125,0.029-0.216,0.086-0.277
		c0.057-0.061,0.127-0.109,0.211-0.145c0.084-0.037,0.17-0.077,0.252-0.125c0.084-0.049,0.152-0.123,0.211-0.221
		c0.057-0.098,0.086-0.24,0.088-0.428v-4.545c-0.002-0.144-0.029-0.256-0.08-0.338c-0.051-0.078-0.12-0.141-0.204-0.184
		c-0.08-0.039-0.166-0.075-0.258-0.102c-0.092-0.025-0.178-0.055-0.262-0.09c-0.08-0.033-0.146-0.083-0.199-0.148
		c-0.049-0.065-0.078-0.158-0.08-0.277c0.002-0.117,0.031-0.209,0.086-0.283c0.055-0.073,0.127-0.129,0.215-0.17
		c0.088-0.042,0.184-0.068,0.283-0.086c0.102-0.014,0.197-0.02,0.289-0.02c0.145,0,0.288,0.004,0.43,0.012
		c0.141,0.006,0.285,0.008,0.428,0.012c0.422-0.004,0.816-0.01,1.176-0.027c0.361-0.017,0.68-0.035,0.961-0.061
		c0.271-0.022,0.5-0.041,0.68-0.059h0.012c0.182-0.018,0.305-0.027,0.369-0.027c0.318,0,0.627,0.031,0.93,0.101
		c0.303,0.067,0.584,0.167,0.848,0.306c0.262,0.135,0.492,0.305,0.689,0.512c0.199,0.205,0.355,0.447,0.465,0.725
		c0.113,0.277,0.17,0.588,0.172,0.938C42.528,11.231,42.473,11.545,42.366,11.826z M47.559,10.849
		c0.209-0.146,0.428-0.254,0.574-0.476c0.162,0.172,0.225,0.273,0.238,0.512c0.008,0.161,0.01,0.322,0.012,0.484
		c0,0.033-0.27,0.025-0.303,0.025c-0.199,0-0.4,0-0.604,0C47.481,11.272,47.448,10.926,47.559,10.849z M47.692,15.569
		c-0.053-0.072-0.113-0.146-0.18-0.207c-0.041-0.213-0.039-0.432-0.039-0.648c-0.002-0.123-0.004-0.246-0.002-0.367
		c0-0.131,0.07-0.106,0.184-0.115c0.24-0.021,0.48-0.021,0.723-0.021c-0.008,0.14-0.016,0.277-0.037,0.415
		c0.004-0.023,0.008-0.035,0,0.003c-0.018,0.135-0.008,0.062,0,0.011c-0.025,0.169-0.055,0.365-0.154,0.507
		C48.061,15.325,47.817,15.364,47.692,15.569z M51.502,14.913c0.018,0.082,0.053,0.156,0.105,0.219
		c0.053,0.063,0.129,0.123,0.23,0.182c0.078,0.04,0.148,0.08,0.207,0.117c0.061,0.039,0.105,0.086,0.141,0.144
		c0.031,0.057,0.049,0.132,0.049,0.227c0.004,0.056-0.004,0.122-0.02,0.196c-0.016,0.075-0.062,0.151-0.135,0.227
		c-0.07,0.078-0.189,0.148-0.354,0.215c-0.166,0.066-0.393,0.12-0.686,0.16c-0.289,0.041-0.664,0.061-1.119,0.062
		c-0.088,0-0.195-0.002-0.324-0.004c-0.131-0.004-0.27-0.013-0.422-0.029c-0.148-0.014-0.299-0.035-0.445-0.069
		c-0.146-0.033-0.283-0.08-0.404-0.138c-0.121-0.059-0.219-0.131-0.291-0.221c-0.072-0.092-0.109-0.199-0.113-0.33
		c-0.006-0.125,0.004-0.221,0.033-0.283c0.023-0.062,0.061-0.111,0.109-0.145c0.047-0.031,0.1-0.064,0.158-0.096
		c0.061-0.033,0.117-0.08,0.18-0.143c0.061-0.062,0.115-0.152,0.168-0.274c0.049-0.122,0.09-0.29,0.121-0.505
		c0.029-0.212,0.045-0.485,0.045-0.82c0.002-0.154-0.01-0.274-0.031-0.359c-0.021-0.084-0.057-0.145-0.107-0.179
		c-0.057-0.034-0.131-0.054-0.223-0.06C48.28,13,48.163,12.998,48.016,13c-0.324-0.002-0.582,0.003-0.779,0.013
		c-0.193,0.011-0.342,0.033-0.441,0.07c-0.104,0.037-0.17,0.096-0.205,0.172c-0.035,0.08-0.053,0.188-0.053,0.322
		c-0.002,0.137,0,0.309,0.004,0.516c0,0.261,0.018,0.472,0.051,0.627c0.035,0.155,0.08,0.273,0.135,0.355s0.111,0.145,0.174,0.186
		c0.061,0.039,0.117,0.08,0.174,0.117c0.055,0.033,0.1,0.082,0.131,0.145c0.035,0.062,0.055,0.155,0.055,0.278
		c0,0.136-0.043,0.251-0.127,0.348c-0.084,0.094-0.193,0.174-0.334,0.237c-0.137,0.063-0.289,0.113-0.455,0.15
		c-0.168,0.038-0.338,0.065-0.504,0.082c-0.17,0.02-0.328,0.03-0.475,0.035c-0.145,0.006-0.264,0.008-0.359,0.008
		c-0.092,0-0.205-0.002-0.346-0.008c-0.139-0.004-0.289-0.016-0.449-0.033c-0.162-0.018-0.322-0.044-0.48-0.08
		c-0.16-0.037-0.305-0.086-0.434-0.146c-0.135-0.061-0.238-0.139-0.318-0.232c-0.08-0.092-0.121-0.205-0.123-0.336
		c0.004-0.123,0.041-0.221,0.113-0.301c0.07-0.08,0.156-0.142,0.26-0.188c0.068-0.031,0.131-0.062,0.188-0.095
		c0.055-0.028,0.104-0.071,0.145-0.126s0.08-0.135,0.109-0.239s0.053-0.247,0.072-0.425c0.021-0.178,0.033-0.408,0.041-0.687
		c0.01-0.277,0.014-0.618,0.014-1.021c0-0.514-0.002-0.942-0.006-1.286c-0.002-0.344-0.012-0.62-0.021-0.831
		c-0.012-0.214-0.029-0.376-0.049-0.49c-0.021-0.114-0.049-0.197-0.084-0.251c-0.035-0.052-0.08-0.09-0.133-0.117
		c-0.051-0.026-0.111-0.058-0.184-0.093c-0.061-0.031-0.117-0.064-0.176-0.102S43.04,9.493,42.999,9.44
		c-0.039-0.053-0.059-0.117-0.062-0.193c0.004-0.15,0.055-0.278,0.148-0.384c0.094-0.108,0.225-0.198,0.379-0.271
		c0.158-0.072,0.334-0.13,0.525-0.175s0.383-0.08,0.58-0.102c0.193-0.022,0.375-0.037,0.543-0.045s0.307-0.012,0.418-0.012
		c0.102,0,0.227,0.004,0.379,0.012c0.15,0.008,0.311,0.026,0.479,0.055c0.166,0.027,0.324,0.066,0.473,0.121
		c0.148,0.057,0.27,0.131,0.361,0.222c0.094,0.093,0.143,0.206,0.145,0.347c0,0.117-0.021,0.215-0.062,0.291
		c-0.039,0.078-0.094,0.144-0.162,0.199c-0.07,0.054-0.152,0.107-0.24,0.16c-0.072,0.039-0.133,0.08-0.18,0.132
		c-0.049,0.05-0.084,0.12-0.109,0.209c-0.027,0.091-0.047,0.216-0.057,0.373c-0.01,0.159-0.014,0.368-0.014,0.622
		c0,0.16,0.018,0.281,0.055,0.365c0.037,0.08,0.092,0.135,0.164,0.164c0.074,0.029,0.164,0.042,0.27,0.042
		c0.107,0.002,0.23,0,0.369-0.002h0.596c0.189,0,0.334-0.007,0.438-0.022c0.105-0.018,0.178-0.043,0.223-0.08
		c0.041-0.036,0.066-0.086,0.074-0.146c0.008-0.062,0.01-0.138,0.008-0.227c0-0.314-0.012-0.562-0.033-0.746
		s-0.049-0.322-0.084-0.415c-0.035-0.091-0.072-0.154-0.115-0.19c-0.039-0.034-0.078-0.061-0.117-0.078
		c-0.074-0.041-0.145-0.084-0.209-0.129c-0.066-0.043-0.117-0.099-0.158-0.162c-0.041-0.064-0.061-0.145-0.062-0.244
		c-0.002-0.047,0.002-0.104,0.014-0.176c0.014-0.069,0.053-0.146,0.119-0.227s0.18-0.155,0.336-0.225
		c0.16-0.071,0.385-0.131,0.676-0.175c0.289-0.045,0.664-0.067,1.121-0.069c0.096,0,0.207,0,0.346,0.004s0.283,0.012,0.439,0.029
		c0.158,0.016,0.316,0.041,0.469,0.072c0.152,0.035,0.291,0.084,0.42,0.145c0.125,0.059,0.227,0.137,0.305,0.231
		c0.074,0.094,0.113,0.208,0.113,0.343c0,0.129-0.029,0.237-0.092,0.326c-0.061,0.09-0.15,0.163-0.266,0.221
		c-0.07,0.027-0.131,0.056-0.186,0.085c-0.051,0.028-0.096,0.077-0.133,0.14c-0.039,0.064-0.068,0.16-0.092,0.293
		c-0.023,0.132-0.041,0.315-0.053,0.548c-0.008,0.232-0.014,0.532-0.014,0.898v3.022C51.479,14.729,51.487,14.829,51.502,14.913z
		 M52.887,15.899c-0.172-0.188-0.475-0.455-0.475-0.699c0-0.529,0-1.059,0-1.59c0-0.412,0-0.826,0-1.241
		c0-0.409-0.004-0.824,0.043-1.233c0.021-0.193,0.031-0.239,0.188-0.342c0.234-0.115,0.428-0.297,0.527-0.54
		c0.086,0.126,0.197,0.261,0.314,0.356c0.158,0.131,0.146,0.232,0.162,0.447c0.02,0.256,0.027,0.513,0.031,0.77
		c0.006,0.49,0.002,0.982,0.002,1.473c0,0.561,0.008,1.137-0.086,1.691c-0.037,0.211-0.09,0.267-0.27,0.389
		C53.129,15.508,52.959,15.67,52.887,15.899z M57.768,16.014c-0.021,0.08-0.078,0.156-0.168,0.232
		c-0.09,0.075-0.229,0.146-0.418,0.207c-0.191,0.064-0.451,0.112-0.779,0.148c-0.33,0.039-0.748,0.057-1.252,0.059
		c-0.084,0-0.189-0.002-0.314-0.004c-0.127-0.004-0.266-0.014-0.408-0.026c-0.148-0.014-0.295-0.037-0.438-0.068
		c-0.145-0.03-0.275-0.075-0.396-0.13c-0.119-0.056-0.215-0.126-0.287-0.213c-0.07-0.086-0.107-0.189-0.109-0.313
		c0.002-0.091,0.023-0.169,0.062-0.229c0.043-0.059,0.096-0.11,0.158-0.153c0.062-0.046,0.125-0.085,0.193-0.125
		c0.062-0.044,0.119-0.091,0.166-0.144c0.035-0.04,0.068-0.103,0.1-0.187c0.029-0.088,0.059-0.211,0.08-0.377
		c0.023-0.162,0.043-0.377,0.057-0.646c0.012-0.27,0.02-0.606,0.02-1.011v-1.151c0-0.365-0.008-0.67-0.02-0.907
		c-0.014-0.241-0.031-0.431-0.055-0.571c-0.021-0.145-0.047-0.252-0.076-0.326c-0.029-0.075-0.061-0.131-0.094-0.17
		c-0.068-0.084-0.145-0.151-0.225-0.207c-0.08-0.057-0.16-0.108-0.236-0.162c-0.074-0.049-0.137-0.109-0.184-0.18
		c-0.049-0.068-0.074-0.156-0.076-0.265c0.002-0.121,0.047-0.223,0.133-0.312c0.086-0.087,0.201-0.159,0.344-0.222
		c0.141-0.06,0.301-0.11,0.475-0.147c0.176-0.038,0.352-0.068,0.531-0.09s0.346-0.037,0.502-0.047
		c0.158-0.01,0.293-0.016,0.402-0.018s0.182-0.002,0.217-0.002c0.143-0.002,0.307,0.002,0.488,0.008
		c0.184,0.008,0.373,0.025,0.562,0.05c0.189,0.026,0.365,0.069,0.527,0.129c0.164,0.058,0.293,0.137,0.393,0.239
		c0.104,0.1,0.154,0.23,0.156,0.387c-0.002,0.104-0.025,0.186-0.072,0.242c-0.047,0.061-0.107,0.111-0.184,0.15
		c-0.07,0.041-0.15,0.082-0.23,0.127s-0.154,0.105-0.223,0.179c-0.053,0.065-0.1,0.175-0.131,0.323
		c-0.029,0.148-0.053,0.326-0.068,0.525c-0.014,0.199-0.023,0.41-0.029,0.63c-0.002,0.219-0.002,0.431-0.002,0.636v1.151
		c0,0.411,0.002,0.746,0.016,1.005c0.012,0.26,0.025,0.463,0.047,0.609s0.047,0.253,0.076,0.322
		c0.029,0.068,0.064,0.117,0.104,0.146c0.039,0.026,0.082,0.054,0.129,0.08c0.098,0.056,0.189,0.106,0.275,0.151
		s0.156,0.1,0.211,0.166c0.053,0.066,0.08,0.157,0.082,0.274C57.803,15.859,57.792,15.934,57.768,16.014z M58.475,15.907
		c-0.105-0.068-0.193-0.238-0.273-0.336c-0.039-0.049-0.076-0.1-0.121-0.145c-0.072-0.071-0.154-0.131-0.242-0.181
		c-0.012-0.114-0.02-0.228-0.025-0.345c-0.021-0.387-0.021-0.774-0.021-1.162c0-0.535-0.004-1.072,0.004-1.607
		c0.006-0.392-0.047-0.95,0.131-1.312c0.236-0.236,0.568-0.268,0.727-0.613c0.023,0.035,0.055,0.066,0.078,0.101
		c0.074,0.097,0.143,0.183,0.244,0.253c0.176,0.123,0.234,0.102,0.266,0.332c0.105,0.775,0.111,1.559,0.105,2.339
		c0,0.03,0,0.034,0,0.025c0.002,0.557,0.043,1.209-0.115,1.744c-0.045,0.143-0.201,0.209-0.32,0.278
		C58.678,15.418,58.52,15.64,58.475,15.907z M68.293,9.304c-0.041,0.072-0.096,0.126-0.162,0.165
		c-0.066,0.04-0.137,0.074-0.213,0.109s-0.145,0.08-0.211,0.136c-0.064,0.055-0.119,0.136-0.162,0.241
		c-0.033,0.106-0.064,0.226-0.086,0.361c-0.021,0.135-0.035,0.273-0.043,0.419c-0.012,0.146-0.016,0.288-0.018,0.426
		s-0.002,0.261-0.002,0.374v3.01c0,0.09,0.002,0.203,0.002,0.34c0,0.135-0.004,0.281-0.012,0.441
		c-0.01,0.158-0.027,0.314-0.053,0.472c-0.027,0.157-0.066,0.301-0.115,0.431c-0.053,0.13-0.123,0.232-0.209,0.311
		s-0.193,0.119-0.322,0.121c-0.117-0.002-0.225-0.033-0.324-0.088c-0.102-0.057-0.193-0.125-0.281-0.203l-3.592-3.219
		c-0.055-0.052-0.121-0.113-0.201-0.178c-0.078-0.066-0.162-0.124-0.252-0.176c-0.086-0.047-0.172-0.074-0.256-0.076
		c-0.072,0.002-0.129,0.029-0.176,0.08s-0.082,0.119-0.111,0.2c-0.027,0.085-0.045,0.169-0.057,0.263
		c-0.012,0.09-0.02,0.178-0.023,0.258c-0.004,0.082-0.004,0.148-0.004,0.199c0,0.109,0.002,0.226,0.006,0.351
		c0.006,0.125,0.012,0.247,0.021,0.37c0.012,0.121,0.029,0.233,0.055,0.336c0.037,0.146,0.084,0.26,0.146,0.34
		c0.066,0.079,0.133,0.139,0.209,0.182c0.068,0.042,0.139,0.082,0.205,0.119c0.066,0.034,0.119,0.08,0.162,0.139
		c0.043,0.061,0.064,0.144,0.066,0.256c-0.002,0.154-0.043,0.283-0.129,0.387c-0.084,0.103-0.193,0.186-0.328,0.248
		c-0.133,0.062-0.279,0.109-0.436,0.139c-0.158,0.03-0.309,0.051-0.459,0.062c-0.148,0.009-0.277,0.013-0.391,0.013
		c-0.109,0-0.238-0.004-0.387-0.013c-0.146-0.011-0.297-0.03-0.455-0.062c-0.154-0.029-0.299-0.074-0.436-0.135
		c-0.133-0.059-0.242-0.141-0.324-0.24c-0.084-0.101-0.129-0.226-0.131-0.375c0.002-0.121,0.025-0.216,0.072-0.281
		c0.043-0.068,0.102-0.123,0.172-0.165c0.072-0.04,0.145-0.087,0.219-0.134s0.143-0.113,0.201-0.193
		c0.059-0.084,0.102-0.197,0.127-0.344c0.025-0.168,0.049-0.355,0.064-0.562c0.014-0.204,0.023-0.41,0.029-0.618
		c0.01-0.205,0.01-0.398,0.01-0.575c0.002-0.417,0-0.838-0.016-1.261c-0.012-0.422-0.049-0.843-0.111-1.262
		c-0.033-0.19-0.08-0.344-0.141-0.458s-0.131-0.203-0.207-0.268c-0.076-0.063-0.152-0.114-0.234-0.151
		c-0.08-0.037-0.15-0.074-0.217-0.111c-0.068-0.039-0.121-0.088-0.16-0.15c-0.043-0.062-0.062-0.152-0.064-0.266
		c0.002-0.138,0.043-0.254,0.117-0.346c0.078-0.094,0.18-0.166,0.309-0.225c0.129-0.057,0.271-0.1,0.424-0.131
		c0.156-0.028,0.312-0.049,0.467-0.061c0.158-0.01,0.305-0.016,0.438-0.018h0.338c0.178-0.002,0.326,0.004,0.447,0.014
		c0.117,0.011,0.221,0.033,0.312,0.068c0.092,0.031,0.184,0.085,0.279,0.151c0.092,0.07,0.205,0.161,0.334,0.278l2.752,2.417
		c0.039,0.031,0.084,0.069,0.143,0.12c0.061,0.049,0.125,0.1,0.195,0.149c0.066,0.053,0.137,0.095,0.205,0.13
		c0.064,0.034,0.127,0.052,0.18,0.055c0.07-0.003,0.129-0.029,0.168-0.078c0.041-0.051,0.074-0.112,0.092-0.186
		c0.02-0.074,0.029-0.147,0.037-0.224c0.004-0.073,0.006-0.138,0.004-0.188c0-0.099,0-0.215-0.004-0.345
		c-0.008-0.13-0.018-0.258-0.031-0.385c-0.016-0.127-0.037-0.238-0.07-0.328c-0.031-0.096-0.08-0.171-0.143-0.225
		c-0.062-0.055-0.127-0.102-0.199-0.139c-0.072-0.036-0.143-0.074-0.209-0.118c-0.064-0.04-0.119-0.099-0.162-0.168
		c-0.041-0.071-0.062-0.169-0.064-0.292c0.002-0.146,0.045-0.268,0.129-0.361c0.08-0.09,0.189-0.16,0.32-0.21
		c0.133-0.05,0.273-0.083,0.424-0.104c0.15-0.019,0.299-0.03,0.441-0.032c0.139-0.002,0.26-0.004,0.361-0.002
		c0.104-0.002,0.232-0.002,0.381,0S67.268,8.27,67.43,8.29c0.158,0.019,0.311,0.055,0.453,0.104
		c0.141,0.052,0.256,0.126,0.342,0.224c0.088,0.097,0.135,0.226,0.137,0.386C68.36,9.131,68.336,9.233,68.293,9.304z M39.413,11.691
		L39.413,11.691c0,0,0,0.001-0.002,0.003C39.413,11.693,39.413,11.692,39.413,11.691z M23.865,6.911
		c-0.01,0.025-0.02,0.051-0.031,0.077C23.846,6.961,23.855,6.936,23.865,6.911z M17.266,6.321L17.266,6.321
		c0.01-0.021,0.018-0.039,0.027-0.059c0-0.001,0-0.001,0-0.001C17.283,6.282,17.273,6.301,17.266,6.321z M23.691,7.313
		c0.014-0.031,0.029-0.064,0.045-0.096C23.721,7.249,23.705,7.282,23.691,7.313z M17.789,5.293c0.004-0.004,0.006-0.008,0.008-0.01
		V5.283C17.795,5.286,17.793,5.29,17.789,5.293z M18.072,4.859l0.002-0.001c0.016-0.025,0.033-0.051,0.051-0.074l0.002-0.002
		C18.107,4.807,18.09,4.833,18.072,4.859z"/>
	<linearGradient id="SVGID_2_" gradientUnits="userSpaceOnUse" x1="34.3569" y1="20.5757" x2="34.3569" y2="3.8258">
		<stop  offset="0" style="stop-color:#0087CF"/>
		<stop  offset="1" style="stop-color:#35B6EA"/>
	</linearGradient>
	<path fill="url(#SVGID_2_)" d="M20.676,8.526c0.094-0.06,0.189-0.119,0.289-0.176C21.549,8.721,21.412,8.863,20.676,8.526z
		 M68.362,9.002c-0.002,0.129-0.025,0.23-0.068,0.302c-0.041,0.072-0.096,0.126-0.162,0.165c-0.066,0.04-0.137,0.074-0.213,0.109
		s-0.145,0.08-0.211,0.136c-0.064,0.055-0.119,0.136-0.162,0.241c-0.033,0.106-0.064,0.226-0.086,0.361
		c-0.021,0.135-0.035,0.273-0.043,0.419c-0.012,0.146-0.016,0.288-0.018,0.426s-0.002,0.261-0.002,0.374v3.01
		c0,0.09,0.002,0.203,0.002,0.34c0,0.135-0.004,0.281-0.012,0.441c-0.01,0.158-0.027,0.314-0.053,0.472
		c-0.027,0.157-0.066,0.301-0.115,0.431c-0.053,0.13-0.123,0.232-0.209,0.311s-0.193,0.119-0.322,0.121
		c-0.117-0.002-0.225-0.033-0.324-0.088c-0.102-0.057-0.193-0.125-0.281-0.203l-3.592-3.219c-0.055-0.052-0.121-0.113-0.201-0.178
		c-0.078-0.066-0.162-0.124-0.252-0.176c-0.086-0.047-0.172-0.074-0.256-0.076c-0.072,0.002-0.129,0.029-0.176,0.08
		s-0.082,0.119-0.111,0.2c-0.027,0.085-0.045,0.169-0.057,0.263c-0.012,0.09-0.02,0.178-0.023,0.258
		c-0.004,0.082-0.004,0.148-0.004,0.199c0,0.109,0.002,0.226,0.006,0.351c0.006,0.125,0.012,0.247,0.021,0.37
		c0.012,0.121,0.029,0.233,0.055,0.336c0.037,0.146,0.084,0.26,0.146,0.34c0.066,0.079,0.133,0.139,0.209,0.182
		c0.068,0.042,0.139,0.082,0.205,0.119c0.066,0.034,0.119,0.08,0.162,0.139c0.043,0.061,0.064,0.144,0.066,0.256
		c-0.002,0.154-0.043,0.283-0.129,0.387c-0.084,0.103-0.193,0.186-0.328,0.248c-0.133,0.062-0.279,0.109-0.436,0.139
		c-0.158,0.03-0.309,0.051-0.459,0.062c-0.148,0.009-0.277,0.013-0.391,0.013c-0.109,0-0.238-0.004-0.387-0.013
		c-0.146-0.011-0.297-0.03-0.455-0.062c-0.154-0.029-0.299-0.074-0.436-0.135c-0.133-0.059-0.242-0.141-0.324-0.24
		c-0.084-0.101-0.129-0.226-0.131-0.375c0.002-0.121,0.025-0.216,0.072-0.281c0.043-0.068,0.102-0.123,0.172-0.165
		c0.072-0.04,0.145-0.087,0.219-0.134s0.143-0.113,0.201-0.193c0.059-0.084,0.102-0.197,0.127-0.344
		c0.025-0.168,0.049-0.355,0.064-0.562c0.014-0.204,0.023-0.41,0.029-0.618c0.01-0.205,0.01-0.398,0.01-0.575
		c0.002-0.417,0-0.838-0.016-1.261c-0.012-0.422-0.049-0.843-0.111-1.262c-0.033-0.19-0.08-0.344-0.141-0.458
		s-0.131-0.203-0.207-0.268c-0.076-0.063-0.152-0.114-0.234-0.151c-0.08-0.037-0.15-0.074-0.217-0.111
		c-0.068-0.039-0.121-0.088-0.16-0.15c-0.043-0.062-0.062-0.152-0.064-0.266c0.002-0.138,0.043-0.254,0.117-0.346
		c0.078-0.094,0.18-0.166,0.309-0.225c0.129-0.057,0.271-0.1,0.424-0.131c0.156-0.028,0.312-0.049,0.467-0.061
		c0.158-0.01,0.305-0.016,0.438-0.018h0.338c0.178-0.002,0.326,0.004,0.447,0.014c0.117,0.011,0.221,0.033,0.312,0.068
		c0.092,0.031,0.184,0.085,0.279,0.151c0.092,0.07,0.205,0.161,0.334,0.278l2.752,2.417c0.039,0.031,0.084,0.069,0.143,0.12
		c0.061,0.049,0.125,0.1,0.195,0.149c0.066,0.053,0.137,0.095,0.205,0.13c0.064,0.034,0.127,0.052,0.18,0.055
		c0.07-0.003,0.129-0.029,0.168-0.078c0.041-0.051,0.074-0.112,0.092-0.186c0.02-0.074,0.029-0.147,0.037-0.224
		c0.004-0.073,0.006-0.138,0.004-0.188c0-0.099,0-0.215-0.004-0.345c-0.008-0.13-0.018-0.258-0.031-0.385
		c-0.016-0.127-0.037-0.238-0.07-0.328c-0.031-0.096-0.08-0.171-0.143-0.225c-0.062-0.055-0.127-0.102-0.199-0.139
		c-0.072-0.036-0.143-0.074-0.209-0.118c-0.064-0.04-0.119-0.099-0.162-0.168c-0.041-0.071-0.062-0.169-0.064-0.292
		c0.002-0.146,0.045-0.268,0.129-0.361c0.08-0.09,0.189-0.16,0.32-0.21c0.133-0.05,0.273-0.083,0.424-0.104
		c0.15-0.019,0.299-0.03,0.441-0.032c0.139-0.002,0.26-0.004,0.361-0.002c0.104-0.002,0.232-0.002,0.381,0S67.268,8.27,67.43,8.29
		c0.158,0.019,0.311,0.055,0.453,0.104c0.141,0.052,0.256,0.126,0.342,0.224C68.313,8.713,68.36,8.842,68.362,9.002z M60.217,13.299
		c0-0.586-0.012-1.042-0.035-1.367c-0.023-0.326-0.057-0.623-0.096-0.893c-0.031-0.199-0.092-0.369-0.178-0.51
		c0.035,0.251,0.059,0.506,0.078,0.758c0.033,0.461,0.037,0.932,0.037,1.393v0.321c0,0.319-0.01,0.641-0.025,0.961
		c-0.014,0.302-0.037,0.606-0.088,0.904c-0.059,0.356-0.277,0.624-0.582,0.808c-0.088,0.055-0.223,0.148-0.223,0.268
		c0,0.176,0.131,0.279,0.279,0.345c0.062-0.095,0.16-0.183,0.291-0.261c0.25-0.15,0.396-0.348,0.436-0.59s0.068-0.531,0.084-0.869
		c0.014-0.337,0.021-0.652,0.021-0.945V13.299z M61.758,8.85c-0.055-0.184-0.268-0.248-0.455-0.289
		c-0.301-0.068-0.73-0.064-1.039-0.064c-0.299,0-0.684,0.004-0.975,0.075c-0.182,0.042-0.422,0.114-0.422,0.335
		c0,0.135,0.088,0.211,0.199,0.273c0.027,0.014,0.053,0.028,0.078,0.045c0.102-0.16,0.295-0.273,0.584-0.34
		c0.229-0.057,0.578-0.084,1.047-0.084C61.208,8.801,61.536,8.817,61.758,8.85z M66.256,11.526c0-0.258-0.008-0.471-0.02-0.639
		c-0.012-0.17-0.043-0.324-0.09-0.465c-0.021-0.059-0.055-0.115-0.107-0.171c0.014,0.214,0.018,0.431,0.018,0.645
		c0,0.216-0.016,0.479-0.111,0.676c-0.1,0.212-0.287,0.345-0.523,0.345c-0.01,0-0.02,0-0.029,0c0.1,0.076,0.188,0.139,0.264,0.188
		c0.125,0.081,0.219,0.121,0.285,0.121c0.104,0,0.18-0.053,0.234-0.162C66.229,11.954,66.256,11.774,66.256,11.526z M68.178,8.85
		c-0.051-0.184-0.27-0.248-0.453-0.289c-0.303-0.068-0.73-0.064-1.039-0.064c-0.299,0-0.684,0.004-0.975,0.075
		c-0.182,0.042-0.424,0.114-0.424,0.335c0,0.135,0.09,0.211,0.201,0.273c0.025,0.014,0.053,0.028,0.076,0.045
		c0.104-0.16,0.297-0.273,0.584-0.34c0.23-0.057,0.58-0.084,1.049-0.084C67.629,8.801,67.958,8.817,68.178,8.85z M9.57,11.168
		c0.092,0.396,0.139,0.807,0.137,1.227c0,0.435-0.051,0.857-0.156,1.268c-0.104,0.408-0.264,0.789-0.479,1.145
		c-0.215,0.354-0.49,0.662-0.822,0.93c-0.332,0.269-0.727,0.475-1.184,0.625s-0.98,0.228-1.566,0.23H5.406
		c-0.215-0.002-0.414-0.006-0.6-0.012c-0.211-0.005-0.406-0.013-0.586-0.025c-0.178-0.004-0.352-0.012-0.514-0.016
		s-0.324-0.006-0.484-0.006c-0.164,0-0.33,0.002-0.496,0.006s-0.33,0.012-0.492,0.016c-0.164,0.013-0.326,0.021-0.49,0.025
		c-0.164,0.006-0.33,0.012-0.5,0.012c-0.1,0-0.201-0.016-0.305-0.04s-0.203-0.063-0.287-0.118c-0.092-0.055-0.162-0.123-0.217-0.205
		c-0.055-0.086-0.084-0.184-0.084-0.3c0-0.118,0.016-0.206,0.049-0.265c0.033-0.058,0.078-0.098,0.131-0.123
		c0.057-0.023,0.117-0.045,0.184-0.061c0.066-0.018,0.131-0.043,0.199-0.075c0.066-0.034,0.127-0.091,0.186-0.167
		c0.057-0.076,0.104-0.189,0.139-0.334c0.037-0.146,0.059-0.34,0.064-0.58l0.094-4.033c0.002-0.197-0.016-0.352-0.053-0.465
		C1.303,9.714,1.25,9.629,1.186,9.572C1.123,9.515,1.055,9.471,0.982,9.44C0.908,9.411,0.838,9.377,0.773,9.344
		c-0.066-0.031-0.119-0.079-0.16-0.143C0.57,9.137,0.549,9.045,0.549,8.92c0-0.134,0.039-0.239,0.111-0.322
		c0.07-0.08,0.164-0.145,0.275-0.188s0.23-0.069,0.352-0.084C1.412,8.31,1.523,8.303,1.629,8.305h3.777h0.012
		c0.645,0.002,1.207,0.076,1.688,0.223C7.584,8.676,7.99,8.879,8.322,9.141c0.334,0.262,0.602,0.564,0.805,0.91
		S9.479,10.768,9.57,11.168z M4.441,15.297c0.102,0.058,0.258,0.085,0.465,0.085c0.186-0.001,0.35-0.022,0.5-0.067
		c0.086-0.025,0.168-0.059,0.242-0.096c0.201-0.109,0.367-0.255,0.496-0.439c0.129-0.184,0.229-0.389,0.297-0.619
		c0.072-0.231,0.121-0.469,0.146-0.717c0.027-0.246,0.041-0.488,0.039-0.724c-0.002-0.542-0.039-0.999-0.113-1.37
		c-0.076-0.374-0.176-0.679-0.305-0.914C6.08,10.202,5.936,10.023,5.77,9.897c-0.117-0.091-0.238-0.16-0.363-0.209
		C5.355,9.667,5.303,9.65,5.252,9.637C5.072,9.59,4.889,9.57,4.709,9.572c-0.162,0-0.277,0.021-0.354,0.067
		C4.281,9.684,4.234,9.754,4.213,9.848c-0.021,0.096-0.029,0.215-0.027,0.361v4.336c-0.002,0.197,0.014,0.356,0.047,0.48
		C4.268,15.149,4.336,15.239,4.441,15.297z M7.182,13.372c0-0.903-0.109-1.613-0.326-2.131c0.105,0.514,0.131,1.052,0.131,1.511
		c0,0.644-0.074,1.356-0.354,1.946c-0.344,0.713-0.93,1.094-1.725,1.094c-0.053,0-0.104-0.002-0.158-0.004
		c0.02,0.053,0.041,0.096,0.068,0.131c0.09,0.119,0.291,0.178,0.602,0.178c0.666,0,1.145-0.305,1.439-0.916
		C7.074,14.729,7.182,14.125,7.182,13.372z M8.039,9.202C7.285,8.7,6.348,8.543,5.432,8.543H1.553c-0.191,0-0.422,0.016-0.6,0.086
		C0.836,8.675,0.76,8.729,0.76,8.86c0,0.123,0.16,0.207,0.254,0.249C1.033,9.12,1.055,9.129,1.074,9.14
		C1.139,9.063,1.23,9.003,1.348,8.956c0.184-0.07,0.422-0.106,0.715-0.106h3.879C6.75,8.849,7.449,8.967,8.039,9.202z M1.594,10.292
		C1.59,10.536,1.6,10.782,1.605,11.02c0.006,0.383,0.012,0.771-0.004,1.156c-0.014,0.369-0.033,0.74-0.055,1.109
		c-0.021,0.407-0.041,0.813-0.057,1.221c-0.02,0.523-0.199,1.029-0.713,1.247c-0.051,0.021-0.307,0.144-0.309,0.214
		c-0.002,0.058,0.006,0.102,0.049,0.139c0.074,0.061,0.322,0.082,0.436,0.088c0.055-0.031,0.117-0.062,0.189-0.092
		c0.326-0.137,0.498-0.461,0.52-0.969c0.01-0.302,0.029-0.709,0.057-1.225c0.029-0.515,0.047-0.884,0.055-1.105
		c0.012-0.285,0.012-0.664,0.002-1.138s-0.012-0.776-0.006-0.911C1.775,10.579,1.717,10.424,1.594,10.292 M25.787,12.984
		c-0.205,3.593-2.861,6.479-6.168,7.053c-1.998,0.347-3.973-0.226-5.584-1.442c-1.02-0.77-1.109-0.605-0.107,0.246
		c1.674,1.418,3.801,2.113,5.959,1.739c3.561-0.616,6.238-3.952,6.238-7.892C26.125,12.433,25.826,12.292,25.787,12.984z
		 M13.443,13.689c-0.078-0.463-0.086-0.923-0.027-1.366c0.203-1.55,1.197-2.927,2.643-3.678c0.053-0.225,0.111-0.451,0.176-0.68
		c-1.869,0.76-3.117,2.514-3.125,4.449c0,0.262,0.021,0.527,0.066,0.795C13.283,13.831,13.52,14.12,13.443,13.689z M51.481,11.593
		v3.022c-0.002,0.113,0.006,0.213,0.021,0.297c0.018,0.082,0.053,0.156,0.105,0.219c0.053,0.063,0.129,0.123,0.23,0.182
		c0.078,0.04,0.148,0.08,0.207,0.117c0.061,0.039,0.105,0.086,0.141,0.144c0.031,0.057,0.049,0.132,0.049,0.227
		c0.004,0.056-0.004,0.122-0.02,0.196c-0.016,0.075-0.062,0.151-0.135,0.227c-0.07,0.078-0.189,0.148-0.354,0.215
		c-0.166,0.066-0.393,0.12-0.686,0.16c-0.289,0.041-0.664,0.061-1.119,0.062c-0.088,0-0.195-0.002-0.324-0.004
		c-0.131-0.004-0.27-0.013-0.422-0.029c-0.148-0.014-0.299-0.035-0.445-0.069c-0.146-0.033-0.283-0.08-0.404-0.138
		c-0.121-0.059-0.219-0.131-0.291-0.221c-0.072-0.092-0.109-0.199-0.113-0.33c-0.006-0.125,0.004-0.221,0.033-0.283
		c0.023-0.062,0.061-0.111,0.109-0.145c0.047-0.031,0.1-0.064,0.158-0.096c0.061-0.033,0.117-0.08,0.18-0.143
		c0.061-0.062,0.115-0.152,0.168-0.274c0.049-0.122,0.09-0.29,0.121-0.505c0.029-0.212,0.045-0.485,0.045-0.82
		c0.002-0.154-0.01-0.274-0.031-0.359c-0.021-0.084-0.057-0.145-0.107-0.179c-0.057-0.034-0.131-0.054-0.223-0.06
		C48.28,13,48.163,12.998,48.016,13c-0.324-0.002-0.582,0.003-0.779,0.013c-0.193,0.011-0.342,0.033-0.441,0.07
		c-0.104,0.037-0.17,0.096-0.205,0.172c-0.035,0.08-0.053,0.188-0.053,0.322c-0.002,0.137,0,0.309,0.004,0.516
		c0,0.261,0.018,0.472,0.051,0.627c0.035,0.155,0.08,0.273,0.135,0.355s0.111,0.145,0.174,0.186c0.061,0.039,0.117,0.08,0.174,0.117
		c0.055,0.033,0.1,0.082,0.131,0.145c0.035,0.062,0.055,0.155,0.055,0.278c0,0.136-0.043,0.251-0.127,0.348
		c-0.084,0.094-0.193,0.174-0.334,0.237c-0.137,0.063-0.289,0.113-0.455,0.15c-0.168,0.038-0.338,0.065-0.504,0.082
		c-0.17,0.02-0.328,0.03-0.475,0.035c-0.145,0.006-0.264,0.008-0.359,0.008c-0.092,0-0.205-0.002-0.346-0.008
		c-0.139-0.004-0.289-0.016-0.449-0.033c-0.162-0.018-0.322-0.044-0.48-0.08c-0.16-0.037-0.305-0.086-0.434-0.146
		c-0.135-0.061-0.238-0.139-0.318-0.232c-0.08-0.092-0.121-0.205-0.123-0.336c0.004-0.123,0.041-0.221,0.113-0.301
		c0.07-0.08,0.156-0.142,0.26-0.188c0.068-0.031,0.131-0.062,0.188-0.095c0.055-0.028,0.104-0.071,0.145-0.126
		s0.08-0.135,0.109-0.239s0.053-0.247,0.072-0.425c0.021-0.178,0.033-0.408,0.041-0.687c0.01-0.277,0.014-0.618,0.014-1.021
		c0-0.514-0.002-0.942-0.006-1.286c-0.002-0.344-0.012-0.62-0.021-0.831c-0.012-0.214-0.029-0.376-0.049-0.49
		c-0.021-0.114-0.049-0.197-0.084-0.251c-0.035-0.052-0.08-0.09-0.133-0.117c-0.051-0.026-0.111-0.058-0.184-0.093
		c-0.061-0.031-0.117-0.064-0.176-0.102S43.04,9.493,42.999,9.44c-0.039-0.053-0.059-0.117-0.062-0.193
		c0.004-0.15,0.055-0.278,0.148-0.384c0.094-0.108,0.225-0.198,0.379-0.271c0.158-0.072,0.334-0.13,0.525-0.175
		s0.383-0.08,0.58-0.102c0.193-0.022,0.375-0.037,0.543-0.045s0.307-0.012,0.418-0.012c0.102,0,0.227,0.004,0.379,0.012
		c0.15,0.008,0.311,0.026,0.479,0.055c0.166,0.027,0.324,0.066,0.473,0.121c0.148,0.057,0.27,0.131,0.361,0.222
		c0.094,0.093,0.143,0.206,0.145,0.347c0,0.117-0.021,0.215-0.062,0.291c-0.039,0.078-0.094,0.144-0.162,0.199
		c-0.07,0.054-0.152,0.107-0.24,0.16c-0.072,0.039-0.133,0.08-0.18,0.132c-0.049,0.05-0.084,0.12-0.109,0.209
		c-0.027,0.091-0.047,0.216-0.057,0.373c-0.01,0.159-0.014,0.368-0.014,0.622c0,0.16,0.018,0.281,0.055,0.365
		c0.037,0.08,0.092,0.135,0.164,0.164c0.074,0.029,0.164,0.042,0.27,0.042c0.107,0.002,0.23,0,0.369-0.002h0.596
		c0.189,0,0.334-0.007,0.438-0.022c0.105-0.018,0.178-0.043,0.223-0.08c0.041-0.036,0.066-0.086,0.074-0.146
		c0.008-0.062,0.01-0.138,0.008-0.227c0-0.314-0.012-0.562-0.033-0.746s-0.049-0.322-0.084-0.415
		c-0.035-0.091-0.072-0.154-0.115-0.19c-0.039-0.034-0.078-0.061-0.117-0.078c-0.074-0.041-0.145-0.084-0.209-0.129
		c-0.066-0.043-0.117-0.099-0.158-0.162c-0.041-0.064-0.061-0.145-0.062-0.244c-0.002-0.047,0.002-0.104,0.014-0.176
		c0.014-0.069,0.053-0.146,0.119-0.227s0.18-0.155,0.336-0.225c0.16-0.071,0.385-0.131,0.676-0.175
		c0.289-0.045,0.664-0.067,1.121-0.069c0.096,0,0.207,0,0.346,0.004s0.283,0.012,0.439,0.029c0.158,0.016,0.316,0.041,0.469,0.072
		c0.152,0.035,0.291,0.084,0.42,0.145c0.125,0.059,0.227,0.137,0.305,0.231c0.074,0.094,0.113,0.208,0.113,0.343
		c0,0.129-0.029,0.237-0.092,0.326c-0.061,0.09-0.15,0.163-0.266,0.221c-0.07,0.027-0.131,0.056-0.186,0.085
		c-0.051,0.028-0.096,0.077-0.133,0.14c-0.039,0.064-0.068,0.16-0.092,0.293c-0.023,0.132-0.041,0.315-0.053,0.548
		C51.487,10.927,51.481,11.227,51.481,11.593z M44.245,12.514c0-0.697-0.018-1.184-0.059-1.457c-0.041-0.274-0.096-0.462-0.17-0.565
		c0.055,0.446,0.049,0.964,0.049,1.402v1.179c0,0.537,0,1.131-0.07,1.662c-0.027,0.248-0.084,0.615-0.234,0.81
		c-0.076,0.103-0.227,0.208-0.328,0.28c-0.047,0.031-0.152,0.115-0.152,0.188c0,0.152,0.154,0.248,0.307,0.306
		c0.041-0.048,0.096-0.094,0.156-0.138c0.145-0.104,0.232-0.175,0.262-0.215c0.074-0.094,0.131-0.312,0.176-0.654
		c0.043-0.341,0.064-0.881,0.064-1.618V12.514z M47.004,8.902c-0.078-0.187-0.346-0.266-0.51-0.306
		c-0.355-0.093-0.811-0.101-1.178-0.101c-0.422,0-0.848,0.028-1.266,0.104c-0.154,0.027-0.893,0.176-0.893,0.438
		c0,0.09,0.072,0.161,0.129,0.209c0.041,0.029,0.096,0.071,0.152,0.115c0.16-0.207,0.504-0.357,1.033-0.453
		c0.395-0.072,0.832-0.107,1.312-0.107C46.321,8.801,46.727,8.834,47.004,8.902z M49.358,13.299c0-0.586-0.012-1.042-0.037-1.367
		c-0.023-0.326-0.055-0.623-0.094-0.893c-0.035-0.199-0.094-0.369-0.178-0.51c0.033,0.251,0.057,0.506,0.076,0.758
		c0.033,0.461,0.037,0.932,0.037,1.393v0.321c0,0.319-0.01,0.641-0.025,0.961c-0.014,0.302-0.037,0.606-0.088,0.904
		c-0.057,0.356-0.273,0.624-0.582,0.808c-0.088,0.055-0.223,0.148-0.223,0.268c0,0.176,0.133,0.279,0.279,0.345
		c0.062-0.095,0.16-0.183,0.293-0.261c0.25-0.15,0.395-0.348,0.434-0.59s0.066-0.531,0.084-0.869
		c0.016-0.337,0.023-0.652,0.023-0.945V13.299z M51.237,8.834c-0.125-0.107-0.283-0.23-0.4-0.273
		c-0.172-0.062-0.49-0.065-0.674-0.065c-0.379,0-0.84,0.003-1.209,0.077c-0.197,0.042-0.617,0.139-0.617,0.406
		c0,0.105,0.223,0.233,0.301,0.273l0.01,0.006c0.133-0.174,0.385-0.298,0.754-0.373c0.277-0.057,0.701-0.084,1.271-0.084
		C50.905,8.801,51.092,8.813,51.237,8.834z M42.358,9.948c0.113,0.277,0.17,0.588,0.172,0.938c-0.002,0.346-0.057,0.66-0.164,0.94
		c-0.109,0.282-0.262,0.529-0.453,0.745c-0.195,0.213-0.42,0.392-0.682,0.538c-0.256,0.145-0.539,0.253-0.84,0.326
		c-0.301,0.074-0.615,0.11-0.941,0.11c-0.135-0.002-0.271-0.007-0.404-0.018c-0.037-0.004-0.076-0.008-0.115-0.012
		c-0.17-0.016-0.334-0.026-0.492-0.028c-0.066,0-0.115,0.016-0.145,0.044c-0.027,0.031-0.045,0.078-0.041,0.143v0.674
		c0.008,0.24,0.033,0.43,0.078,0.569c0.045,0.142,0.102,0.247,0.166,0.321c0.068,0.072,0.139,0.126,0.213,0.163
		c0.072,0.034,0.141,0.067,0.207,0.097c0.049,0.023,0.094,0.053,0.129,0.093c0.01,0.011,0.021,0.021,0.029,0.034
		c0.041,0.053,0.059,0.135,0.061,0.244c-0.002,0.107-0.029,0.199-0.09,0.279c-0.01,0.014-0.021,0.029-0.035,0.044
		c-0.082,0.087-0.191,0.16-0.326,0.218c-0.139,0.059-0.285,0.105-0.451,0.139c-0.162,0.034-0.326,0.06-0.49,0.074
		c-0.164,0.016-0.318,0.025-0.459,0.031c-0.141,0.004-0.254,0.006-0.346,0.006c-0.082,0-0.191-0.002-0.332-0.004
		c-0.137-0.004-0.289-0.014-0.455-0.026c-0.168-0.014-0.334-0.037-0.498-0.071c-0.166-0.03-0.319-0.074-0.458-0.13
		c-0.141-0.057-0.252-0.128-0.334-0.216c-0.084-0.088-0.127-0.194-0.129-0.32c0.002-0.125,0.029-0.216,0.086-0.277
		c0.057-0.061,0.127-0.109,0.211-0.145c0.084-0.037,0.17-0.077,0.252-0.125c0.084-0.049,0.152-0.123,0.211-0.221
		c0.057-0.098,0.086-0.24,0.088-0.428v-4.545c-0.002-0.144-0.029-0.256-0.08-0.338c-0.051-0.078-0.12-0.141-0.204-0.184
		c-0.08-0.039-0.166-0.075-0.258-0.102c-0.092-0.025-0.178-0.055-0.262-0.09c-0.08-0.033-0.146-0.083-0.199-0.148
		c-0.049-0.065-0.078-0.158-0.08-0.277c0.002-0.117,0.031-0.209,0.086-0.283c0.055-0.073,0.127-0.129,0.215-0.17
		c0.088-0.042,0.184-0.068,0.283-0.086c0.102-0.014,0.197-0.02,0.289-0.02c0.145,0,0.288,0.004,0.43,0.012
		c0.141,0.006,0.285,0.008,0.428,0.012c0.422-0.004,0.816-0.01,1.176-0.027c0.361-0.017,0.68-0.035,0.961-0.061
		c0.271-0.022,0.5-0.041,0.68-0.059h0.012c0.182-0.018,0.305-0.027,0.369-0.027c0.318,0,0.627,0.031,0.93,0.101
		c0.303,0.067,0.584,0.167,0.848,0.306c0.262,0.135,0.492,0.305,0.689,0.512C42.092,9.428,42.249,9.67,42.358,9.948z M36.086,13.299
		c0-0.586-0.012-1.042-0.037-1.367c-0.023-0.326-0.057-0.623-0.094-0.893c-0.033-0.199-0.094-0.369-0.178-0.51
		c0.033,0.251,0.059,0.506,0.078,0.758c0.031,0.461,0.033,0.932,0.033,1.393v0.321c0,0.319-0.008,0.641-0.023,0.961
		c-0.014,0.302-0.037,0.606-0.088,0.904c-0.057,0.356-0.273,0.624-0.581,0.808c-0.09,0.055-0.225,0.148-0.225,0.268
		c0,0.176,0.131,0.279,0.279,0.345c0.064-0.095,0.16-0.183,0.292-0.261c0.252-0.15,0.395-0.348,0.438-0.59
		c0.039-0.242,0.064-0.531,0.08-0.869c0.018-0.337,0.025-0.652,0.025-0.945V13.299z M38.973,8.735
		c-0.004-0.016-0.105-0.133-0.424-0.145c-0.314-0.012-0.848,0.084-1.254,0.1c-0.525,0.02-0.912-0.038-1.059-0.038
		c-0.299,0-0.682,0.003-0.975,0.074c-0.18,0.042-0.424,0.114-0.424,0.335c0,0.135,0.09,0.211,0.201,0.272
		c0.025,0.015,0.053,0.03,0.078,0.046c0.1-0.16,0.295-0.273,0.583-0.34c0.23-0.057,0.666-0.17,1.137-0.17
		C37.268,8.87,38.752,8.703,38.973,8.735z M38.778,12.221c0.096-0.001,0.186-0.01,0.268-0.026c0.135-0.03,0.252-0.079,0.35-0.15
		c0.156-0.116,0.271-0.271,0.342-0.464c0.074-0.195,0.109-0.412,0.107-0.648c0-0.248-0.039-0.471-0.123-0.674
		c-0.086-0.201-0.211-0.361-0.381-0.479c-0.086-0.062-0.184-0.108-0.295-0.139c-0.105-0.028-0.223-0.046-0.35-0.046
		c-0.15,0-0.256,0.016-0.316,0.045c-0.064,0.029-0.102,0.072-0.113,0.128c-0.012,0.054-0.018,0.122-0.014,0.2v1.742
		c-0.004,0.062-0.004,0.122-0.006,0.182c-0.002,0.061,0.008,0.117,0.033,0.165c0.023,0.052,0.074,0.089,0.148,0.118
		C38.506,12.206,38.62,12.221,38.778,12.221z M40.104,10.872c0,0,0.008,0.436-0.299,0.98c-0.309,0.545-1.217,0.506-1.217,0.506
		c-0.129-0.014-0.262,0.32,0.131,0.33c0.389,0.012,1.039-0.287,1.254-0.717C40.334,11.25,40.104,10.872,40.104,10.872z
		 M26.402,3.464c-0.996-0.132-1.41,0.158-1.807,0.801c-0.309,0.504-0.186,1.103-0.258,1.657c-0.09,0.83-0.771,2.379-1.74,3.11
		c-0.254,0.192-0.527,0.332-0.82,0.382c-0.141,0.025-0.41-0.092-0.371-0.268c0.041-0.197,0.096-0.489,0.158-0.828
		c0.139-0.77,0.289-1.645,0.354-2.375c0.047-0.535-0.193-1.264-0.588-0.992c-1.029,0.705-2.006,1.76-2.852,2.831
		c-0.072,0.091-0.143,0.184-0.211,0.276l0,0c-1.33,1.798-2.084,3.98-1.494,6.004c-0.018-0.055-0.033-0.111-0.047-0.168
		c0.09,0.474,0.652,1.368,0.467,1.838c-0.096,0.242-0.221,0.684-0.684,0.795c-0.371,0.09-0.955-0.399-1.508-0.677
		c-0.107-0.146-0.203-0.3-0.291-0.456c0.51-0.527,1.357-1.222,1.934-0.627c-0.799-1.794-0.752-4.121-0.318-6.17
		c0.133-0.64,0.305-1.252,0.502-1.812c0.293-0.844,1.443-2.396,1.287-3.281C18,2.852,16.721,3.308,16.426,3.002
		c-0.318-0.331,0.996-1.262,1.562-1.293c0.561-0.031,1.164,1.018,1.193,1.562l1.064-0.934c1.564-1.312,4.789-2.668,7.484-2.018
		c2.053,0.496,3.006,1.582,3.143,2.93c0.057,0.594,1.352,1.43,1.053,1.867C31.285,6.052,27.424,3.599,26.402,3.464z M23.445,6.418
		c-0.27,0.757-0.566,1.535-1.115,2.114c-0.066,0.067-0.109,0.123-0.141,0.171c-0.111,0.171-0.018,0.213,0.172,0.133
		c0.256-0.107,0.682-0.431,1.012-0.942c0.406-0.638,0.666-1.376,0.846-2.112C24.26,5.61,23.684,5.752,23.445,6.418z M24.906,0.623
		c-2.498,0.37-4.141,1.447-6.07,3.323c-0.139,0.136-0.27,0.281-0.395,0.432c-0.006,0.003-0.01,0.009-0.014,0.012l0,0
		c-0.105,0.127-0.205,0.258-0.301,0.393l-0.002,0.002c-0.018,0.023-0.035,0.049-0.051,0.074l-0.002,0.001
		c-0.096,0.139-0.189,0.278-0.275,0.424v0.001c-0.002,0.002-0.004,0.006-0.008,0.01c-0.188,0.313-0.352,0.64-0.496,0.968
		c0,0,0,0,0,0.001c-0.01,0.02-0.018,0.038-0.027,0.058v0.001c-0.07,0.162-0.137,0.322-0.197,0.482c0,0.002,0,0.002,0,0.003l0,0
		c-0.127,0.335-0.236,0.667-0.328,0.985l0,0v0.001c-0.031,0.105-0.057,0.211-0.086,0.313c0,0.001,0,0.003,0,0.004
		c-0.027,0.102-0.053,0.203-0.076,0.301c0,0.001-0.002,0.004-0.002,0.006c-0.002,0.009-0.004,0.02-0.008,0.029
		c-0.26,1.109-0.318,1.93-0.318,1.93c0.064-0.197,0.129-0.388,0.193-0.576c0.059-0.159,0.115-0.313,0.172-0.466
		c0.012-0.024,0.018-0.05,0.027-0.073c0.135-0.35,0.273-0.682,0.418-1c0.014-0.027,0.025-0.059,0.039-0.086
		c0.084-0.182,0.17-0.355,0.256-0.528c0.84-1.649,1.85-2.858,3.1-3.864l0,0c0.09-0.07,0.18-0.141,0.271-0.211c0,0,0,0,0-0.002
		C20.82,3.5,20.914,3.43,21.006,3.363c0.006-0.003,0.006-0.005,0.012-0.007c0.002-0.001,0.002-0.002,0.004-0.003
		c0.16-0.116,0.326-0.229,0.496-0.341c0.01-0.006,0.018-0.013,0.027-0.02c0.166-0.107,0.336-0.215,0.51-0.321
		c0.014-0.007,0.025-0.016,0.039-0.023c0.174-0.103,0.35-0.204,0.529-0.307c0.014-0.008,0.029-0.017,0.045-0.026
		c0.18-0.1,0.363-0.199,0.549-0.297c0.01-0.006,0.021-0.012,0.031-0.017c0.008-0.005,0.016-0.009,0.025-0.014
		c0.186-0.097,0.375-0.194,0.568-0.29c0.01-0.004,0.018-0.008,0.025-0.013c0.012-0.005,0.021-0.009,0.031-0.016
		c0.197-0.096,0.393-0.192,0.598-0.288c0.01-0.006,0.023-0.012,0.035-0.018c0.002,0,0.002-0.001,0.004-0.002
		c0.213-0.101,0.43-0.202,0.652-0.303C25.596,0.872,25.389,0.55,24.906,0.623z M28.641,3.322c-0.105-0.169-0.312-0.229-0.463-0.137
		c-0.148,0.095-0.186,0.306-0.076,0.476c0.104,0.169,0.311,0.229,0.461,0.136C28.711,3.702,28.746,3.489,28.641,3.322z
		 M34.377,14.284c0.025,0.117,0.041,0.23,0.041,0.343c-0.004,0.185-0.027,0.37-0.074,0.565c-0.045,0.19-0.109,0.377-0.191,0.555
		c-0.08,0.179-0.172,0.338-0.273,0.482c-0.102,0.142-0.207,0.256-0.316,0.339c-0.113,0.083-0.223,0.126-0.33,0.128
		c-0.104-0.002-0.201-0.01-0.291-0.027s-0.188-0.036-0.293-0.055c-0.107-0.021-0.232-0.041-0.369-0.057
		c-0.139-0.018-0.305-0.023-0.502-0.023h-3.881c-0.096,0.001-0.197,0-0.307-0.005c-0.111-0.006-0.215-0.022-0.314-0.052
		s-0.18-0.078-0.244-0.149c-0.064-0.072-0.098-0.175-0.1-0.307c0.002-0.117,0.023-0.204,0.068-0.265
		c0.043-0.059,0.1-0.104,0.17-0.136c0.068-0.03,0.143-0.062,0.221-0.095c0.078-0.035,0.15-0.084,0.223-0.148
		c0.072-0.066,0.131-0.166,0.178-0.293c0.049-0.131,0.076-0.305,0.084-0.527c0.01-0.424,0.016-0.823,0.02-1.199
		c0.002-0.377,0.002-0.736,0.002-1.079c-0.002-0.347-0.012-0.688-0.029-1.017c-0.021-0.332-0.039-0.658-0.053-0.982
		c-0.004-0.161-0.031-0.286-0.084-0.375c-0.053-0.092-0.117-0.16-0.195-0.203c-0.078-0.045-0.164-0.08-0.25-0.103
		c-0.088-0.024-0.17-0.049-0.25-0.076c-0.078-0.027-0.139-0.069-0.191-0.124c-0.047-0.057-0.072-0.137-0.074-0.246
		c0.002-0.141,0.049-0.262,0.137-0.359c0.09-0.102,0.209-0.186,0.357-0.25c0.15-0.064,0.311-0.117,0.49-0.155
		c0.178-0.039,0.357-0.068,0.537-0.087s0.346-0.029,0.496-0.035c0.154-0.006,0.279-0.008,0.379-0.008
		c0.461,0.012,0.842,0.034,1.145,0.065c0.301,0.033,0.541,0.073,0.717,0.124c0.176,0.048,0.305,0.105,0.389,0.169
		c0.082,0.062,0.135,0.13,0.156,0.202c0.025,0.074,0.035,0.149,0.033,0.23c-0.004,0.11-0.023,0.193-0.068,0.251
		c-0.045,0.057-0.102,0.101-0.172,0.13c-0.068,0.031-0.141,0.059-0.221,0.09c-0.076,0.028-0.15,0.069-0.219,0.123
		c-0.07,0.053-0.127,0.131-0.172,0.235c-0.045,0.104-0.066,0.245-0.068,0.426v3.694c-0.002,0.21,0.01,0.391,0.035,0.549
		c0.025,0.154,0.07,0.284,0.137,0.387c0.07,0.104,0.168,0.182,0.293,0.23c0.129,0.055,0.295,0.077,0.502,0.077
		c0.324-0.001,0.588-0.041,0.785-0.119c0.197-0.077,0.35-0.177,0.457-0.298c0.107-0.123,0.189-0.252,0.244-0.39
		c0.051-0.138,0.096-0.268,0.135-0.39c0.039-0.121,0.09-0.22,0.15-0.298c0.062-0.077,0.152-0.118,0.273-0.12
		c0.129,0.002,0.24,0.033,0.332,0.094s0.166,0.142,0.223,0.239C34.311,14.062,34.352,14.167,34.377,14.284z M28.291,12.919
		c0-0.286-0.012-0.664-0.043-1.136c-0.025-0.473-0.039-0.776-0.039-0.912c0-0.175-0.066-0.328-0.193-0.454
		c0.006,0.242,0.025,0.489,0.039,0.727c0.021,0.384,0.043,0.771,0.043,1.155c0,0.369-0.008,0.74-0.012,1.111
		c-0.008,0.407-0.014,0.814-0.014,1.221c0,0.524-0.16,1.037-0.664,1.274c-0.049,0.022-0.299,0.153-0.299,0.226
		c0,0.058,0.008,0.101,0.055,0.137c0.074,0.057,0.322,0.07,0.438,0.071c0.053-0.034,0.115-0.067,0.184-0.1
		c0.322-0.15,0.482-0.479,0.482-0.987c0-0.303,0.004-0.711,0.012-1.227C28.289,13.51,28.291,13.141,28.291,12.919z M29.59,8.801
		c0.711,0,1.268,0.037,1.664,0.113c-0.014-0.094-0.066-0.15-0.164-0.197c-0.465-0.211-1.508-0.221-2.012-0.221
		c-0.453,0-0.938,0.023-1.383,0.123c-0.211,0.048-0.754,0.186-0.754,0.479c0,0.067,0.064,0.084,0.129,0.104
		c0.084,0.028,0.168,0.062,0.25,0.1c0.164-0.16,0.436-0.283,0.818-0.37C28.525,8.845,29.01,8.801,29.59,8.801z M33.932,14.28
		c-0.016-0.064-0.041-0.128-0.078-0.188c-0.061-0.104-0.133-0.161-0.24-0.176c-0.115,0.123-0.293,0.516-0.342,0.633
		c-0.326,0.756-1.033,1.018-1.812,1.018c-0.105,0-0.211-0.006-0.314-0.022l0.004,0.005c0.143,0.214,0.416,0.322,0.82,0.322
		c0.779,0,1.287-0.275,1.525-0.828C33.664,14.646,33.811,14.392,33.932,14.28z M56.86,11.883v1.151c0,0.411,0.002,0.746,0.016,1.005
		c0.012,0.26,0.025,0.463,0.047,0.609s0.047,0.253,0.076,0.322c0.029,0.068,0.064,0.117,0.104,0.146
		c0.039,0.026,0.082,0.054,0.129,0.08c0.098,0.056,0.189,0.106,0.275,0.151s0.156,0.1,0.211,0.166
		c0.053,0.066,0.08,0.157,0.082,0.274c0.004,0.07-0.008,0.146-0.031,0.226c-0.021,0.08-0.078,0.156-0.168,0.232
		c-0.09,0.075-0.229,0.146-0.418,0.207c-0.191,0.064-0.451,0.112-0.779,0.148c-0.33,0.039-0.748,0.057-1.252,0.059
		c-0.084,0-0.189-0.002-0.314-0.004c-0.127-0.004-0.266-0.014-0.408-0.026c-0.148-0.014-0.295-0.037-0.438-0.068
		c-0.145-0.03-0.275-0.075-0.396-0.13c-0.119-0.056-0.215-0.126-0.287-0.213c-0.07-0.086-0.107-0.189-0.109-0.313
		c0.002-0.091,0.023-0.169,0.062-0.229c0.043-0.059,0.096-0.11,0.158-0.153c0.062-0.046,0.125-0.085,0.193-0.125
		c0.062-0.044,0.119-0.091,0.166-0.144c0.035-0.04,0.068-0.103,0.1-0.187c0.029-0.088,0.059-0.211,0.08-0.377
		c0.023-0.162,0.043-0.377,0.057-0.646c0.012-0.27,0.02-0.606,0.02-1.011v-1.151c0-0.365-0.008-0.67-0.02-0.907
		c-0.014-0.241-0.031-0.431-0.055-0.571c-0.021-0.145-0.047-0.252-0.076-0.326c-0.029-0.075-0.061-0.131-0.094-0.17
		c-0.068-0.084-0.145-0.151-0.225-0.207c-0.08-0.057-0.16-0.108-0.236-0.162c-0.074-0.049-0.137-0.109-0.184-0.18
		c-0.049-0.068-0.074-0.156-0.076-0.265c0.002-0.121,0.047-0.223,0.133-0.312c0.086-0.087,0.201-0.159,0.344-0.222
		c0.141-0.06,0.301-0.11,0.475-0.147c0.176-0.038,0.352-0.068,0.531-0.09s0.346-0.037,0.502-0.047
		c0.158-0.01,0.293-0.016,0.402-0.018s0.182-0.002,0.217-0.002c0.143-0.002,0.307,0.002,0.488,0.008
		c0.184,0.008,0.373,0.025,0.562,0.05c0.189,0.026,0.365,0.069,0.527,0.129c0.164,0.058,0.293,0.137,0.393,0.239
		c0.104,0.1,0.154,0.23,0.156,0.387c-0.002,0.104-0.025,0.186-0.072,0.242c-0.047,0.061-0.107,0.111-0.184,0.15
		c-0.07,0.041-0.15,0.082-0.23,0.127s-0.154,0.105-0.223,0.179c-0.053,0.065-0.1,0.175-0.131,0.323
		c-0.029,0.148-0.053,0.326-0.068,0.525c-0.014,0.199-0.023,0.41-0.029,0.63C56.86,11.466,56.86,11.678,56.86,11.883z
		 M54.704,13.299c0-0.586-0.012-1.042-0.035-1.367c-0.023-0.326-0.055-0.623-0.096-0.893c-0.033-0.199-0.092-0.369-0.176-0.51
		c0.033,0.251,0.059,0.506,0.074,0.758c0.035,0.461,0.039,0.932,0.039,1.393v0.321c0,0.319-0.01,0.641-0.025,0.961
		c-0.016,0.302-0.039,0.606-0.086,0.904c-0.062,0.356-0.279,0.624-0.584,0.808c-0.09,0.055-0.221,0.148-0.221,0.268
		c0,0.176,0.129,0.279,0.277,0.345c0.062-0.095,0.16-0.183,0.291-0.261c0.25-0.15,0.395-0.348,0.434-0.59
		c0.041-0.242,0.066-0.531,0.084-0.869c0.016-0.337,0.023-0.652,0.023-0.945V13.299z M56.452,8.85
		c-0.055-0.184-0.27-0.248-0.453-0.289c-0.301-0.068-0.732-0.064-1.041-0.064c-0.297,0-0.682,0.004-0.975,0.075
		c-0.18,0.042-0.422,0.114-0.422,0.335c0,0.135,0.09,0.211,0.199,0.273c0.027,0.014,0.053,0.028,0.08,0.045
		c0.098-0.16,0.293-0.273,0.582-0.34C54.651,8.829,55,8.801,55.469,8.801C55.903,8.801,56.231,8.817,56.452,8.85z"/>
	<path fill="#FFFFFF" d="M20.914,8.381c-0.07,0.043-0.143,0.085-0.213,0.128C20.771,8.466,20.844,8.424,20.914,8.381z M21.453,8.262
		c0.02-0.068,0.035-0.138,0.053-0.207c-0.078,0.037-0.15,0.08-0.229,0.119c-0.107,0.056-0.209,0.117-0.311,0.178
		c0.58,0.369,0.445,0.51-0.291,0.176c-0.115,0.074-0.232,0.148-0.342,0.228c0.309,0.127,0.598,0.286,0.871,0.474
		C21.289,8.907,21.371,8.584,21.453,8.262z M26.322,11.808c0.748,4.313-2.143,8.417-6.457,9.165
		c-4.316,0.748-8.42-2.145-9.168-6.459s2.145-8.418,6.459-9.166c0.043-0.007,0.086-0.012,0.127-0.019
		c-0.465,0.915-0.805,1.788-1.051,2.637c-1.867,0.759-3.115,2.513-3.123,4.448c0,0.262,0.021,0.527,0.066,0.795
		c0.107,0.621,0.344,0.91,0.268,0.479c-0.078-0.463-0.086-0.923-0.027-1.366c0.203-1.55,1.197-2.926,2.643-3.678
		c-0.014,0.058-0.027,0.115-0.039,0.171c-0.023,0.106-0.041,0.211-0.061,0.315c-1.582,1.002-2.486,2.887-2.148,4.844
		c0.451,2.596,2.918,4.334,5.514,3.885c2.596-0.451,4.336-2.918,3.885-5.514c-0.158-0.911-0.566-1.716-1.139-2.357
		c0.043-0.018,0.088-0.034,0.135-0.055c0.301-0.133,0.572-0.291,0.826-0.466c0.596-0.417,1.055-0.951,1.377-1.604
		C25.373,8.936,26.057,10.282,26.322,11.808z M26.125,12.688c0-0.255-0.299-0.396-0.338,0.296c-0.205,3.593-2.861,6.479-6.168,7.053
		c-1.998,0.347-3.973-0.226-5.584-1.442c-1.02-0.77-1.109-0.605-0.107,0.246c1.674,1.418,3.801,2.113,5.959,1.739
		C23.447,19.963,26.125,16.627,26.125,12.688z M68.178,8.85c-0.221-0.033-0.549-0.049-0.98-0.049c-0.469,0-0.818,0.027-1.049,0.084
		c-0.287,0.066-0.48,0.18-0.584,0.34c-0.023-0.017-0.051-0.031-0.076-0.045c-0.111-0.062-0.201-0.139-0.201-0.273
		c0-0.221,0.242-0.293,0.424-0.335c0.291-0.071,0.676-0.075,0.975-0.075c0.309,0,0.736-0.004,1.039,0.064
		C67.909,8.602,68.127,8.667,68.178,8.85 M66.04,10.251c0.014,0.214,0.018,0.431,0.018,0.645c0,0.216-0.016,0.479-0.111,0.676
		c-0.1,0.212-0.287,0.345-0.523,0.345c-0.01,0-0.02,0-0.029,0c0.1,0.076,0.188,0.139,0.264,0.188
		c0.125,0.081,0.219,0.121,0.285,0.121c0.104,0,0.18-0.053,0.234-0.162c0.053-0.109,0.08-0.289,0.08-0.537
		c0-0.258-0.008-0.471-0.02-0.639c-0.012-0.17-0.043-0.324-0.09-0.465C66.125,10.364,66.092,10.307,66.04,10.251 M8.039,9.202
		C7.285,8.7,6.348,8.543,5.432,8.543H1.553c-0.191,0-0.422,0.016-0.6,0.086C0.836,8.675,0.76,8.729,0.76,8.86
		c0,0.123,0.16,0.207,0.254,0.249C1.033,9.12,1.055,9.129,1.074,9.14C1.139,9.063,1.23,9.003,1.348,8.956
		c0.184-0.07,0.422-0.106,0.715-0.106h3.879C6.75,8.849,7.449,8.967,8.039,9.202 M6.855,11.241c0.105,0.514,0.131,1.052,0.131,1.511
		c0,0.644-0.074,1.356-0.354,1.946c-0.344,0.713-0.93,1.094-1.725,1.094c-0.053,0-0.104-0.002-0.158-0.004
		c0.02,0.053,0.041,0.096,0.068,0.131c0.09,0.119,0.291,0.178,0.602,0.178c0.666,0,1.145-0.305,1.439-0.916
		c0.215-0.451,0.322-1.055,0.322-1.809C7.182,12.468,7.072,11.758,6.855,11.241 M56.452,8.85c-0.055-0.184-0.27-0.248-0.453-0.289
		c-0.301-0.068-0.732-0.064-1.041-0.064c-0.297,0-0.682,0.004-0.975,0.075c-0.18,0.042-0.422,0.114-0.422,0.335
		c0,0.135,0.09,0.211,0.199,0.273c0.027,0.014,0.053,0.028,0.08,0.045c0.098-0.16,0.293-0.273,0.582-0.34
		C54.651,8.829,55,8.801,55.469,8.801C55.903,8.801,56.231,8.817,56.452,8.85 M49.049,10.53c0.033,0.251,0.057,0.506,0.076,0.758
		c0.033,0.461,0.037,0.932,0.037,1.393v0.321c0,0.319-0.01,0.641-0.025,0.961c-0.014,0.302-0.037,0.606-0.088,0.904
		c-0.057,0.356-0.273,0.624-0.582,0.808c-0.088,0.055-0.223,0.148-0.223,0.268c0,0.176,0.133,0.279,0.279,0.345
		c0.062-0.095,0.16-0.183,0.293-0.261c0.25-0.15,0.395-0.348,0.434-0.59s0.066-0.531,0.084-0.869
		c0.016-0.337,0.023-0.652,0.023-0.945v-0.322c0-0.586-0.012-1.042-0.037-1.367c-0.023-0.326-0.055-0.623-0.094-0.893
		C49.192,10.84,49.133,10.67,49.049,10.53 M51.237,8.834c-0.125-0.107-0.283-0.23-0.4-0.273c-0.172-0.062-0.49-0.065-0.674-0.065
		c-0.379,0-0.84,0.003-1.209,0.077c-0.197,0.042-0.617,0.139-0.617,0.406c0,0.105,0.223,0.233,0.301,0.273l0.01,0.006
		c0.133-0.174,0.385-0.298,0.754-0.373c0.277-0.057,0.701-0.084,1.271-0.084C50.905,8.801,51.092,8.813,51.237,8.834 M47.004,8.902
		c-0.078-0.187-0.346-0.266-0.51-0.306c-0.355-0.093-0.811-0.101-1.178-0.101c-0.422,0-0.848,0.028-1.266,0.104
		c-0.154,0.027-0.893,0.176-0.893,0.438c0,0.09,0.072,0.161,0.129,0.209c0.041,0.029,0.096,0.071,0.152,0.115
		c0.16-0.207,0.504-0.357,1.033-0.453c0.395-0.072,0.832-0.107,1.312-0.107C46.321,8.801,46.727,8.834,47.004,8.902 M44.016,10.492
		c0.055,0.446,0.049,0.964,0.049,1.402v1.179c0,0.537,0,1.131-0.07,1.662c-0.027,0.248-0.084,0.615-0.234,0.81
		c-0.076,0.103-0.227,0.208-0.328,0.28c-0.047,0.031-0.152,0.115-0.152,0.188c0,0.152,0.154,0.248,0.307,0.306
		c0.041-0.048,0.096-0.094,0.156-0.138c0.145-0.104,0.232-0.175,0.262-0.215c0.074-0.094,0.131-0.312,0.176-0.654
		c0.043-0.341,0.064-0.881,0.064-1.618v-1.179c0-0.697-0.018-1.184-0.059-1.457C44.145,10.783,44.09,10.595,44.016,10.492
		 M31.254,8.915c-0.014-0.094-0.066-0.15-0.164-0.197c-0.465-0.211-1.508-0.221-2.012-0.221c-0.453,0-0.938,0.023-1.383,0.123
		c-0.211,0.048-0.754,0.186-0.754,0.479c0,0.067,0.064,0.084,0.129,0.104c0.084,0.028,0.168,0.062,0.25,0.1
		c0.164-0.16,0.436-0.283,0.818-0.37c0.387-0.086,0.871-0.13,1.451-0.13C30.301,8.801,30.857,8.838,31.254,8.915 M33.613,13.917
		c-0.115,0.123-0.293,0.516-0.342,0.633c-0.326,0.756-1.033,1.018-1.812,1.018c-0.105,0-0.211-0.006-0.314-0.022l0.004,0.005
		c0.143,0.214,0.416,0.322,0.82,0.322c0.779,0,1.287-0.275,1.525-0.828c0.17-0.397,0.316-0.651,0.438-0.764
		c-0.016-0.064-0.041-0.128-0.078-0.188C33.793,13.989,33.721,13.931,33.613,13.917 M54.397,10.53
		c0.033,0.251,0.059,0.506,0.074,0.758c0.035,0.461,0.039,0.932,0.039,1.393v0.321c0,0.319-0.01,0.641-0.025,0.961
		c-0.016,0.302-0.039,0.606-0.086,0.904c-0.062,0.356-0.279,0.624-0.584,0.808c-0.09,0.055-0.221,0.148-0.221,0.268
		c0,0.176,0.129,0.279,0.277,0.345c0.062-0.095,0.16-0.183,0.291-0.261c0.25-0.15,0.395-0.348,0.434-0.59
		c0.041-0.242,0.066-0.531,0.084-0.869c0.016-0.337,0.023-0.652,0.023-0.945v-0.322c0-0.586-0.012-1.042-0.035-1.367
		c-0.023-0.326-0.055-0.623-0.096-0.893C54.54,10.84,54.481,10.67,54.397,10.53 M61.758,8.85c-0.055-0.184-0.268-0.248-0.455-0.289
		c-0.301-0.068-0.73-0.064-1.039-0.064c-0.299,0-0.684,0.004-0.975,0.075c-0.182,0.042-0.422,0.114-0.422,0.335
		c0,0.135,0.088,0.211,0.199,0.273c0.027,0.014,0.053,0.028,0.078,0.045c0.102-0.16,0.295-0.273,0.584-0.34
		c0.229-0.057,0.578-0.084,1.047-0.084C61.208,8.801,61.536,8.817,61.758,8.85 M59.909,10.53c0.035,0.251,0.059,0.506,0.078,0.758
		c0.033,0.461,0.037,0.932,0.037,1.393v0.321c0,0.319-0.01,0.641-0.025,0.961c-0.014,0.302-0.037,0.606-0.088,0.904
		c-0.059,0.356-0.277,0.624-0.582,0.808c-0.088,0.055-0.223,0.148-0.223,0.268c0,0.176,0.131,0.279,0.279,0.345
		c0.062-0.095,0.16-0.183,0.291-0.261c0.25-0.15,0.396-0.348,0.436-0.59s0.068-0.531,0.084-0.869
		c0.014-0.337,0.021-0.652,0.021-0.945v-0.322c0-0.586-0.012-1.042-0.035-1.367c-0.023-0.326-0.057-0.623-0.096-0.893
		C60.055,10.84,59.995,10.67,59.909,10.53 M38.973,8.735c-0.004-0.016-0.105-0.133-0.424-0.145c-0.314-0.012-0.848,0.084-1.254,0.1
		c-0.525,0.02-0.912-0.038-1.059-0.038c-0.299,0-0.682,0.003-0.975,0.074c-0.18,0.042-0.424,0.114-0.424,0.335
		c0,0.135,0.09,0.211,0.201,0.272c0.025,0.015,0.053,0.03,0.078,0.046c0.1-0.16,0.295-0.273,0.583-0.34
		c0.23-0.057,0.666-0.17,1.137-0.17C37.268,8.87,38.752,8.703,38.973,8.735 M35.778,10.53c0.033,0.251,0.059,0.506,0.078,0.758
		c0.031,0.461,0.033,0.932,0.033,1.393v0.321c0,0.319-0.008,0.641-0.023,0.961c-0.014,0.302-0.037,0.606-0.088,0.904
		c-0.057,0.356-0.273,0.624-0.581,0.808c-0.09,0.055-0.225,0.148-0.225,0.268c0,0.176,0.131,0.279,0.279,0.345
		c0.064-0.095,0.16-0.183,0.292-0.261c0.252-0.15,0.395-0.348,0.438-0.59c0.039-0.242,0.064-0.531,0.08-0.869
		c0.018-0.337,0.025-0.652,0.025-0.945v-0.322c0-0.586-0.012-1.042-0.037-1.367c-0.023-0.326-0.057-0.623-0.094-0.893
		C35.922,10.84,35.862,10.67,35.778,10.53 M38.588,12.358c-0.129-0.014-0.262,0.32,0.131,0.33c0.389,0.012,1.039-0.287,1.254-0.717
		c0.361-0.721,0.131-1.1,0.131-1.1s0.008,0.436-0.299,0.98C39.497,12.397,38.588,12.358,38.588,12.358 M24.906,0.623
		c-2.498,0.37-4.141,1.447-6.07,3.323c-1.281,1.248-1.938,3.103-2.268,4.5c-0.26,1.109-0.318,1.93-0.318,1.93
		c0.262-0.811,0.543-1.539,0.85-2.201c1.717-3.73,4.195-5.335,8.088-7.115C25.596,0.872,25.389,0.55,24.906,0.623z M24.219,5.782
		c-0.18,0.736-0.439,1.475-0.846,2.112c-0.33,0.512-0.756,0.835-1.012,0.942c-0.189,0.08-0.283,0.038-0.172-0.133
		c0.031-0.048,0.074-0.104,0.141-0.171c0.549-0.579,0.846-1.357,1.115-2.114C23.684,5.752,24.26,5.61,24.219,5.782z M28.016,10.417
		c0.006,0.242,0.025,0.489,0.039,0.727c0.021,0.384,0.043,0.771,0.043,1.155c0,0.369-0.008,0.74-0.012,1.111
		c-0.008,0.407-0.014,0.814-0.014,1.221c0,0.524-0.16,1.037-0.664,1.274c-0.049,0.022-0.299,0.153-0.299,0.226
		c0,0.058,0.008,0.101,0.055,0.137c0.074,0.057,0.322,0.07,0.438,0.071c0.053-0.034,0.115-0.067,0.184-0.1
		c0.322-0.15,0.482-0.479,0.482-0.987c0-0.303,0.004-0.711,0.012-1.227c0.01-0.516,0.012-0.885,0.012-1.106
		c0-0.286-0.012-0.664-0.043-1.136c-0.025-0.473-0.039-0.776-0.039-0.912C28.209,10.697,28.143,10.543,28.016,10.417 M1.594,10.292
		C1.59,10.536,1.6,10.782,1.605,11.02c0.006,0.383,0.012,0.771-0.004,1.156c-0.014,0.369-0.033,0.74-0.055,1.109
		c-0.021,0.407-0.041,0.813-0.057,1.221c-0.02,0.523-0.199,1.029-0.713,1.247c-0.051,0.021-0.307,0.144-0.309,0.214
		c-0.002,0.058,0.006,0.102,0.049,0.139c0.074,0.061,0.322,0.082,0.436,0.088c0.055-0.031,0.117-0.062,0.189-0.092
		c0.326-0.137,0.498-0.461,0.52-0.969c0.01-0.302,0.029-0.709,0.057-1.225c0.029-0.515,0.047-0.884,0.055-1.105
		c0.012-0.285,0.012-0.664,0.002-1.138s-0.012-0.776-0.006-0.911C1.775,10.579,1.717,10.424,1.594,10.292"/>
</g>
</svg>
